<svg width="484" height="624" viewBox="0 0 484 624" fill="none" xmlns="http://www.w3.org/2000/svg">
<path d="M0.391693 17C0.391693 8.71575 7.10742 2 15.3917 2L419.063 2V580.063C419.063 599.393 403.393 615.063 384.063 615.063H15.3917C7.10741 615.063 0.391693 608.347 0.391693 600.063L0.391693 17Z" fill="#A9723F"/>
<g filter="url(#filter0_d_1_48)">
<path fill-rule="evenodd" clip-rule="evenodd" d="M28.8113 2.61035C20.527 2.61035 13.8113 9.32609 13.8113 17.6104V600.234C13.8113 608.518 20.5271 615.234 28.8113 615.234H415.181C434.51 615.234 450.181 599.564 450.181 580.234V264.931H460.211C468.495 264.931 475.211 258.215 475.211 249.931V78C475.211 69.7157 468.495 63 460.211 63H450.181V37.6104C450.181 18.2804 434.51 2.61035 415.18 2.61035H28.8113Z" fill="#C3AA70"/>
</g>
<g filter="url(#filter1_di_1_48)">
<path fill-rule="evenodd" clip-rule="evenodd" d="M365.137 2.61035H28.8113C20.5271 2.61035 13.8113 9.32609 13.8113 17.6104V600.234C13.8113 608.518 20.5271 615.234 28.8114 615.234H415.181C434.51 615.234 450.181 599.564 450.181 580.234V279.086H387.137C374.986 279.086 365.137 269.237 365.137 257.086V2.61035Z" fill="#DBBC75"/>
</g>
<path d="M80.614 337.124H91.228C96.1773 337.124 100.044 338.245 102.828 340.488C105.612 342.692 107.004 345.805 107.004 349.826C107.004 352.765 106.308 355.181 104.916 357.076C103.524 358.932 101.649 360.305 99.29 361.194C96.9313 362.083 94.2827 362.528 91.344 362.528H83.108C82.76 362.528 82.586 362.702 82.586 363.05V375.288C82.586 375.636 82.76 375.81 83.108 375.81C83.6493 375.733 84.1713 375.675 84.674 375.636C85.2153 375.597 85.7373 375.559 86.24 375.52C86.8973 375.443 87.458 375.636 87.922 376.1C88.386 376.564 88.618 377.125 88.618 377.782C88.618 378.401 88.386 378.942 87.922 379.406C87.458 379.87 86.8973 380.063 86.24 379.986C85.08 379.909 84.0747 379.831 83.224 379.754C82.3733 379.715 81.5613 379.696 80.788 379.696C80.0147 379.696 79.222 379.715 78.41 379.754C77.598 379.831 76.6507 379.909 75.568 379.986C74.9107 380.063 74.3307 379.87 73.828 379.406C73.364 378.942 73.132 378.401 73.132 377.782C73.132 377.125 73.364 376.564 73.828 376.1C74.3307 375.636 74.9107 375.443 75.568 375.52C76.148 375.636 76.8053 375.694 77.54 375.694H77.656C77.9267 375.694 78.062 375.539 78.062 375.23V341.59C78.062 341.281 77.9267 341.126 77.656 341.126C77.308 341.126 76.9793 341.145 76.67 341.184C76.3607 341.223 76.0513 341.281 75.742 341.358C75.046 341.435 74.4273 341.242 73.886 340.778C73.3833 340.314 73.132 339.734 73.132 339.038C73.132 338.303 73.3833 337.704 73.886 337.24C74.4273 336.776 75.046 336.583 75.742 336.66C76.5153 336.776 77.3273 336.892 78.178 337.008C79.0287 337.085 79.8407 337.124 80.614 337.124ZM82.586 357.598C82.586 357.946 82.76 358.12 83.108 358.12H91.866C95.2687 358.12 97.9173 357.482 99.812 356.206C101.745 354.891 102.712 352.765 102.712 349.826C102.712 347.699 102.209 346.037 101.204 344.838C100.237 343.601 98.9227 342.731 97.26 342.228C95.636 341.725 93.838 341.474 91.866 341.474H83.108C82.76 341.474 82.586 341.648 82.586 341.996V357.598ZM143.351 375.984C143.892 375.984 144.356 376.177 144.743 376.564C145.129 376.951 145.323 377.434 145.323 378.014C145.323 378.594 145.11 379.077 144.685 379.464C144.259 379.851 143.757 380.025 143.177 379.986C141.939 379.87 140.973 379.793 140.277 379.754C139.581 379.715 138.943 379.696 138.363 379.696C137.628 379.696 136.932 379.715 136.275 379.754C135.617 379.831 134.709 379.909 133.549 379.986C132.969 380.025 132.466 379.851 132.041 379.464C131.615 379.077 131.403 378.594 131.403 378.014C131.403 377.434 131.596 376.951 131.983 376.564C132.369 376.177 132.833 375.984 133.375 375.984C133.723 375.984 134.09 376.003 134.477 376.042C134.863 376.081 135.25 376.119 135.637 376.158H135.753C136.023 376.158 136.159 376.003 136.159 375.694V359.57C136.159 357.869 135.869 356.515 135.289 355.51C134.747 354.466 133.684 353.944 132.099 353.944C130.784 353.944 129.237 354.311 127.459 355.046C125.68 355.781 123.611 357.231 121.253 359.396C121.059 359.589 120.963 359.821 120.963 360.092V375.694C120.963 376.003 121.098 376.158 121.369 376.158C121.794 376.158 122.2 376.139 122.587 376.1C122.973 376.023 123.36 375.984 123.747 375.984C124.288 375.984 124.752 376.177 125.139 376.564C125.525 376.951 125.719 377.434 125.719 378.014C125.719 378.594 125.506 379.077 125.081 379.464C124.655 379.851 124.153 380.025 123.573 379.986C122.374 379.87 121.427 379.793 120.731 379.754C120.035 379.715 119.377 379.696 118.759 379.696C118.063 379.696 117.367 379.715 116.671 379.754C116.013 379.831 115.105 379.909 113.945 379.986C113.365 380.025 112.862 379.851 112.437 379.464C112.011 379.077 111.799 378.594 111.799 378.014C111.799 377.434 111.992 376.951 112.379 376.564C112.765 376.177 113.229 375.984 113.771 375.984C114.08 375.984 114.447 376.003 114.873 376.042C115.298 376.081 115.704 376.119 116.091 376.158H116.207C116.477 376.158 116.613 376.003 116.613 375.694V340.604C116.613 340.295 116.477 340.14 116.207 340.14C115.743 340.14 115.298 340.179 114.873 340.256C114.486 340.295 114.08 340.314 113.655 340.314C113.113 340.314 112.649 340.121 112.263 339.734C111.876 339.347 111.683 338.864 111.683 338.284C111.683 337.704 111.895 337.221 112.321 336.834C112.746 336.409 113.249 336.235 113.829 336.312C114.37 336.351 114.95 336.409 115.569 336.486C116.226 336.525 116.864 336.563 117.483 336.602C118.449 336.641 119.261 336.989 119.919 337.646C120.615 338.303 120.963 339.115 120.963 340.082V354.524C120.963 354.756 121.021 354.891 121.137 354.93C121.291 354.969 121.446 354.911 121.601 354.756C123.766 352.707 125.757 351.295 127.575 350.522C129.431 349.71 131.171 349.304 132.795 349.304C134.805 349.304 136.371 349.787 137.493 350.754C138.614 351.682 139.407 352.939 139.871 354.524C140.335 356.071 140.567 357.772 140.567 359.628V375.694C140.567 376.003 140.721 376.158 141.031 376.158C141.456 376.158 141.843 376.139 142.191 376.1C142.577 376.023 142.964 375.984 143.351 375.984ZM165.931 380.044C163.766 380.044 161.736 379.657 159.841 378.884C157.946 378.072 156.284 376.97 154.853 375.578C153.422 374.147 152.301 372.504 151.489 370.648C150.677 368.792 150.271 366.801 150.271 364.674C150.271 362.547 150.677 360.556 151.489 358.7C152.301 356.844 153.422 355.22 154.853 353.828C156.284 352.397 157.946 351.295 159.841 350.522C161.736 349.71 163.766 349.304 165.931 349.304C168.096 349.304 170.107 349.71 171.963 350.522C173.858 351.295 175.52 352.397 176.951 353.828C178.382 355.22 179.503 356.844 180.315 358.7C181.127 360.556 181.533 362.547 181.533 364.674C181.533 366.801 181.127 368.792 180.315 370.648C179.503 372.504 178.382 374.147 176.951 375.578C175.52 376.97 173.858 378.072 171.963 378.884C170.107 379.657 168.096 380.044 165.931 380.044ZM165.931 375.926C168.135 375.926 170.088 375.404 171.789 374.36C173.49 373.316 174.824 371.943 175.791 370.242C176.758 368.541 177.241 366.685 177.241 364.674C177.241 362.663 176.738 360.807 175.733 359.106C174.766 357.405 173.432 356.032 171.731 354.988C170.03 353.944 168.096 353.422 165.931 353.422C163.688 353.422 161.716 353.944 160.015 354.988C158.314 356.032 156.98 357.405 156.013 359.106C155.046 360.807 154.563 362.663 154.563 364.674C154.563 366.685 155.046 368.541 156.013 370.242C157.018 371.943 158.372 373.316 160.073 374.36C161.774 375.404 163.727 375.926 165.931 375.926ZM204.482 370.01C205.139 370.01 205.7 370.242 206.164 370.706C206.628 371.17 206.821 371.731 206.744 372.388C206.164 377.492 203.631 380.044 199.146 380.044C197.677 380.044 196.381 379.696 195.26 379C194.177 378.304 193.327 377.395 192.708 376.274C192.089 375.114 191.78 373.857 191.78 372.504V354.292C191.78 353.944 191.606 353.77 191.258 353.77H187.778C187.237 353.77 186.753 353.577 186.328 353.19C185.941 352.765 185.748 352.281 185.748 351.74C185.748 351.199 185.941 350.735 186.328 350.348C186.753 349.961 187.237 349.768 187.778 349.768H191.258C191.606 349.768 191.78 349.594 191.78 349.246V339.328C191.78 338.709 191.993 338.187 192.418 337.762C192.843 337.337 193.365 337.124 193.984 337.124C194.564 337.124 195.067 337.337 195.492 337.762C195.917 338.187 196.13 338.709 196.13 339.328V349.246C196.13 349.594 196.304 349.768 196.652 349.768H203.67C204.211 349.768 204.675 349.961 205.062 350.348C205.449 350.735 205.642 351.199 205.642 351.74C205.642 352.281 205.449 352.765 205.062 353.19C204.675 353.577 204.211 353.77 203.67 353.77H196.652C196.304 353.77 196.13 353.944 196.13 354.292V372.504C196.13 372.62 196.169 372.949 196.246 373.49C196.362 373.993 196.633 374.495 197.058 374.998C197.483 375.462 198.179 375.694 199.146 375.694C200.267 375.694 201.06 375.385 201.524 374.766C201.988 374.147 202.297 373.2 202.452 371.924C202.529 371.383 202.761 370.938 203.148 370.59C203.535 370.203 203.979 370.01 204.482 370.01ZM227.499 380.044C225.334 380.044 223.304 379.657 221.409 378.884C219.515 378.072 217.852 376.97 216.421 375.578C214.991 374.147 213.869 372.504 213.057 370.648C212.245 368.792 211.839 366.801 211.839 364.674C211.839 362.547 212.245 360.556 213.057 358.7C213.869 356.844 214.991 355.22 216.421 353.828C217.852 352.397 219.515 351.295 221.409 350.522C223.304 349.71 225.334 349.304 227.499 349.304C229.665 349.304 231.675 349.71 233.531 350.522C235.426 351.295 237.089 352.397 238.519 353.828C239.95 355.22 241.071 356.844 241.883 358.7C242.695 360.556 243.101 362.547 243.101 364.674C243.101 366.801 242.695 368.792 241.883 370.648C241.071 372.504 239.95 374.147 238.519 375.578C237.089 376.97 235.426 378.072 233.531 378.884C231.675 379.657 229.665 380.044 227.499 380.044ZM227.499 375.926C229.703 375.926 231.656 375.404 233.357 374.36C235.059 373.316 236.393 371.943 237.359 370.242C238.326 368.541 238.809 366.685 238.809 364.674C238.809 362.663 238.307 360.807 237.301 359.106C236.335 357.405 235.001 356.032 233.299 354.988C231.598 353.944 229.665 353.422 227.499 353.422C225.257 353.422 223.285 353.944 221.583 354.988C219.882 356.032 218.548 357.405 217.581 359.106C216.615 360.807 216.131 362.663 216.131 364.674C216.131 366.685 216.615 368.541 217.581 370.242C218.587 371.943 219.94 373.316 221.641 374.36C223.343 375.404 225.295 375.926 227.499 375.926ZM255.32 358.004C255.32 358.971 255.784 359.725 256.712 360.266C257.679 360.807 258.897 361.252 260.366 361.6C261.874 361.948 263.46 362.315 265.122 362.702C266.785 363.089 268.351 363.591 269.82 364.21C271.328 364.829 272.546 365.699 273.474 366.82C274.441 367.903 274.924 369.372 274.924 371.228C274.924 372.813 274.422 374.283 273.416 375.636C272.45 376.951 271 378.014 269.066 378.826C267.172 379.599 264.832 379.986 262.048 379.986C260.579 379.986 259.071 379.812 257.524 379.464C256.016 379.116 254.624 378.633 253.348 378.014C252.072 377.357 251.048 376.603 250.274 375.752C249.501 374.863 249.114 373.877 249.114 372.794C249.114 371.866 249.443 371.073 250.1 370.416C250.758 369.759 251.531 369.43 252.42 369.43C253.426 369.43 254.218 369.778 254.798 370.474C255.417 371.131 255.726 371.905 255.726 372.794C255.726 372.949 255.707 373.103 255.668 373.258C255.668 373.374 255.649 373.509 255.61 373.664C255.572 373.703 255.552 373.78 255.552 373.896C255.552 374.089 255.668 374.244 255.9 374.36C256.751 374.708 257.698 375.037 258.742 375.346C259.786 375.655 260.888 375.81 262.048 375.81C263.556 375.81 264.948 375.636 266.224 375.288C267.539 374.901 268.583 374.36 269.356 373.664C270.168 372.968 270.574 372.098 270.574 371.054C270.574 369.971 270.091 369.14 269.124 368.56C268.196 367.941 266.978 367.458 265.47 367.11C264.001 366.723 262.435 366.356 260.772 366.008C259.11 365.621 257.524 365.138 256.016 364.558C254.547 363.939 253.329 363.127 252.362 362.122C251.434 361.078 250.97 359.705 250.97 358.004C250.97 356.457 251.396 355.046 252.246 353.77C253.136 352.455 254.45 351.411 256.19 350.638C257.969 349.826 260.173 349.42 262.802 349.42C264.581 349.42 266.263 349.652 267.848 350.116C269.472 350.58 270.787 351.257 271.792 352.146C272.836 353.035 273.358 354.099 273.358 355.336C273.358 355.452 273.358 355.587 273.358 355.742C273.358 355.858 273.339 355.974 273.3 356.09C273.184 356.863 272.817 357.521 272.198 358.062C271.58 358.565 270.864 358.816 270.052 358.816C269.086 358.816 268.293 358.487 267.674 357.83C267.056 357.173 266.746 356.399 266.746 355.51C266.746 355.394 266.746 355.278 266.746 355.162C266.746 355.007 266.766 354.872 266.804 354.756C266.843 354.717 266.862 354.64 266.862 354.524C266.862 354.292 266.746 354.157 266.514 354.118C265.548 353.693 264.31 353.48 262.802 353.48C261.642 353.48 260.482 353.654 259.322 354.002C258.162 354.311 257.196 354.795 256.422 355.452C255.688 356.109 255.32 356.96 255.32 358.004ZM311.913 375.984C312.454 375.984 312.918 376.177 313.305 376.564C313.692 376.951 313.885 377.434 313.885 378.014C313.885 378.594 313.672 379.077 313.247 379.464C312.822 379.851 312.319 380.025 311.739 379.986C310.502 379.87 309.535 379.793 308.839 379.754C308.143 379.715 307.505 379.696 306.925 379.696C306.19 379.696 305.494 379.715 304.837 379.754C304.18 379.831 303.271 379.909 302.111 379.986C301.531 380.025 301.028 379.851 300.603 379.464C300.178 379.077 299.965 378.594 299.965 378.014C299.965 377.434 300.158 376.951 300.545 376.564C300.932 376.177 301.396 375.984 301.937 375.984C302.285 375.984 302.652 376.003 303.039 376.042C303.426 376.081 303.812 376.119 304.199 376.158H304.315C304.586 376.158 304.721 376.003 304.721 375.694V359.57C304.721 357.869 304.431 356.515 303.851 355.51C303.31 354.466 302.246 353.944 300.661 353.944C299.346 353.944 297.8 354.311 296.021 355.046C294.242 355.781 292.174 357.231 289.815 359.396C289.622 359.589 289.525 359.821 289.525 360.092V375.694C289.525 376.003 289.66 376.158 289.931 376.158C290.356 376.158 290.762 376.139 291.149 376.1C291.536 376.023 291.922 375.984 292.309 375.984C292.85 375.984 293.314 376.177 293.701 376.564C294.088 376.951 294.281 377.434 294.281 378.014C294.281 378.594 294.068 379.077 293.643 379.464C293.218 379.851 292.715 380.025 292.135 379.986C290.936 379.87 289.989 379.793 289.293 379.754C288.597 379.715 287.94 379.696 287.321 379.696C286.625 379.696 285.929 379.715 285.233 379.754C284.576 379.831 283.667 379.909 282.507 379.986C281.927 380.025 281.424 379.851 280.999 379.464C280.574 379.077 280.361 378.594 280.361 378.014C280.361 377.434 280.554 376.951 280.941 376.564C281.328 376.177 281.792 375.984 282.333 375.984C282.642 375.984 283.01 376.003 283.435 376.042C283.86 376.081 284.266 376.119 284.653 376.158H284.769C285.04 376.158 285.175 376.003 285.175 375.694V340.604C285.175 340.295 285.04 340.14 284.769 340.14C284.305 340.14 283.86 340.179 283.435 340.256C283.048 340.295 282.642 340.314 282.217 340.314C281.676 340.314 281.212 340.121 280.825 339.734C280.438 339.347 280.245 338.864 280.245 338.284C280.245 337.704 280.458 337.221 280.883 336.834C281.308 336.409 281.811 336.235 282.391 336.312C282.932 336.351 283.512 336.409 284.131 336.486C284.788 336.525 285.426 336.563 286.045 336.602C287.012 336.641 287.824 336.989 288.481 337.646C289.177 338.303 289.525 339.115 289.525 340.082V354.524C289.525 354.756 289.583 354.891 289.699 354.93C289.854 354.969 290.008 354.911 290.163 354.756C292.328 352.707 294.32 351.295 296.137 350.522C297.993 349.71 299.733 349.304 301.357 349.304C303.368 349.304 304.934 349.787 306.055 350.754C307.176 351.682 307.969 352.939 308.433 354.524C308.897 356.071 309.129 357.772 309.129 359.628V375.694C309.129 376.003 309.284 376.158 309.593 376.158C310.018 376.158 310.405 376.139 310.753 376.1C311.14 376.023 311.526 375.984 311.913 375.984ZM334.494 380.044C332.328 380.044 330.298 379.657 328.404 378.884C326.509 378.072 324.846 376.97 323.416 375.578C321.985 374.147 320.864 372.504 320.052 370.648C319.24 368.792 318.834 366.801 318.834 364.674C318.834 362.547 319.24 360.556 320.052 358.7C320.864 356.844 321.985 355.22 323.416 353.828C324.846 352.397 326.509 351.295 328.404 350.522C330.298 349.71 332.328 349.304 334.494 349.304C336.659 349.304 338.67 349.71 340.526 350.522C342.42 351.295 344.083 352.397 345.514 353.828C346.944 355.22 348.066 356.844 348.878 358.7C349.69 360.556 350.096 362.547 350.096 364.674C350.096 366.801 349.69 368.792 348.878 370.648C348.066 372.504 346.944 374.147 345.514 375.578C344.083 376.97 342.42 378.072 340.526 378.884C338.67 379.657 336.659 380.044 334.494 380.044ZM334.494 375.926C336.698 375.926 338.65 375.404 340.352 374.36C342.053 373.316 343.387 371.943 344.354 370.242C345.32 368.541 345.804 366.685 345.804 364.674C345.804 362.663 345.301 360.807 344.296 359.106C343.329 357.405 341.995 356.032 340.294 354.988C338.592 353.944 336.659 353.422 334.494 353.422C332.251 353.422 330.279 353.944 328.578 354.988C326.876 356.032 325.542 357.405 324.576 359.106C323.609 360.807 323.126 362.663 323.126 364.674C323.126 366.685 323.609 368.541 324.576 370.242C325.581 371.943 326.934 373.316 328.636 374.36C330.337 375.404 332.29 375.926 334.494 375.926ZM370.91 349.362C373.307 349.362 375.376 349.826 377.116 350.754C378.895 351.643 380.364 352.842 381.524 354.35C382.684 355.858 383.554 357.521 384.134 359.338C384.714 361.117 385.004 362.895 385.004 364.674C385.004 366.491 384.675 368.309 384.018 370.126C383.399 371.943 382.452 373.606 381.176 375.114C379.939 376.583 378.411 377.763 376.594 378.652C374.777 379.541 372.689 379.986 370.33 379.986C368.861 379.986 367.469 379.715 366.154 379.174C364.839 378.633 363.641 377.898 362.558 376.97C362.481 376.893 362.365 376.854 362.21 376.854C362.017 376.854 361.92 376.989 361.92 377.26V389.556C361.92 389.865 362.055 390.02 362.326 390.02C362.751 390.02 363.157 389.981 363.544 389.904C363.969 389.865 364.375 389.846 364.762 389.846C365.303 389.846 365.767 390.039 366.154 390.426C366.541 390.813 366.734 391.296 366.734 391.876C366.734 392.456 366.521 392.939 366.096 393.326C365.671 393.713 365.149 393.887 364.53 393.848C363.331 393.732 362.384 393.655 361.688 393.616C360.992 393.577 360.354 393.558 359.774 393.558C359.039 393.558 358.343 393.577 357.686 393.616C357.029 393.693 356.12 393.771 354.96 393.848C354.341 393.887 353.819 393.713 353.394 393.326C352.969 392.939 352.756 392.456 352.756 391.876C352.756 391.296 352.949 390.813 353.336 390.426C353.723 390.039 354.187 389.846 354.728 389.846C355.076 389.846 355.443 389.865 355.83 389.904C356.255 389.943 356.661 389.981 357.048 390.02H357.164C357.435 390.02 357.57 389.865 357.57 389.556V354.06C357.57 353.751 357.435 353.596 357.164 353.596C356.661 353.596 356.178 353.635 355.714 353.712C355.289 353.751 354.844 353.77 354.38 353.77C353.8 353.77 353.297 353.557 352.872 353.132C352.485 352.668 352.292 352.146 352.292 351.566C352.292 350.909 352.524 350.348 352.988 349.884C353.491 349.42 354.051 349.227 354.67 349.304C355.443 349.381 356.275 349.459 357.164 349.536C358.053 349.613 358.904 349.652 359.716 349.652C360.335 349.652 360.857 349.865 361.282 350.29C361.707 350.715 361.92 351.237 361.92 351.856V352.958C361.92 353.19 361.978 353.345 362.094 353.422C362.21 353.461 362.345 353.403 362.5 353.248C363.621 352.127 364.878 351.199 366.27 350.464C367.662 349.729 369.209 349.362 370.91 349.362ZM370.446 375.868C372.379 375.868 374.081 375.365 375.55 374.36C377.058 373.355 378.237 372.001 379.088 370.3C379.977 368.56 380.422 366.665 380.422 364.616C380.422 362.528 380.016 360.653 379.204 358.99C378.392 357.327 377.232 356.013 375.724 355.046C374.255 354.079 372.515 353.596 370.504 353.596C368.841 353.596 367.275 354.002 365.806 354.814C364.375 355.587 363.157 356.67 362.152 358.062C361.997 358.255 361.92 358.468 361.92 358.7V371.344C361.92 371.537 361.978 371.731 362.094 371.924C362.983 373.084 364.124 374.031 365.516 374.766C366.908 375.501 368.551 375.868 370.446 375.868Z" fill="#302623"/>
<defs>
<filter id="filter0_d_1_48" x="11.8113" y="0.610352" width="471.4" height="622.623" filterUnits="userSpaceOnUse" color-interpolation-filters="sRGB">
<feFlood flood-opacity="0" result="BackgroundImageFix"/>
<feColorMatrix in="SourceAlpha" type="matrix" values="0 0 0 0 0 0 0 0 0 0 0 0 0 0 0 0 0 0 127 0" result="hardAlpha"/>
<feOffset dx="3" dy="3"/>
<feGaussianBlur stdDeviation="2.5"/>
<feComposite in2="hardAlpha" operator="out"/>
<feColorMatrix type="matrix" values="0 0 0 0 0 0 0 0 0 0 0 0 0 0 0 0 0 0 0.35 0"/>
<feBlend mode="multiply" in2="BackgroundImageFix" result="effect1_dropShadow_1_48"/>
<feBlend mode="normal" in="SourceGraphic" in2="effect1_dropShadow_1_48" result="shape"/>
</filter>
<filter id="filter1_di_1_48" x="11.8113" y="-4.38965" width="448.369" height="627.623" filterUnits="userSpaceOnUse" color-interpolation-filters="sRGB">
<feFlood flood-opacity="0" result="BackgroundImageFix"/>
<feColorMatrix in="SourceAlpha" type="matrix" values="0 0 0 0 0 0 0 0 0 0 0 0 0 0 0 0 0 0 127 0" result="hardAlpha"/>
<feOffset dx="5" dy="3"/>
<feGaussianBlur stdDeviation="2.5"/>
<feComposite in2="hardAlpha" operator="out"/>
<feColorMatrix type="matrix" values="0 0 0 0 0 0 0 0 0 0 0 0 0 0 0 0 0 0 0.26 0"/>
<feBlend mode="multiply" in2="BackgroundImageFix" result="effect1_dropShadow_1_48"/>
<feBlend mode="normal" in="SourceGraphic" in2="effect1_dropShadow_1_48" result="shape"/>
<feColorMatrix in="SourceAlpha" type="matrix" values="0 0 0 0 0 0 0 0 0 0 0 0 0 0 0 0 0 0 127 0" result="hardAlpha"/>
<feOffset dx="-2" dy="-7"/>
<feGaussianBlur stdDeviation="7.15"/>
<feComposite in2="hardAlpha" operator="arithmetic" k2="-1" k3="1"/>
<feColorMatrix type="matrix" values="0 0 0 0 0 0 0 0 0 0 0 0 0 0 0 0 0 0 0.14 0"/>
<feBlend mode="normal" in2="shape" result="effect2_innerShadow_1_48"/>
</filter>
</defs>
</svg>
