<svg width="484" height="624" viewBox="0 0 484 624" fill="none" xmlns="http://www.w3.org/2000/svg">
<path d="M0.391693 17C0.391693 8.71575 7.10742 2 15.3917 2L419.063 2V580.063C419.063 599.393 403.393 615.063 384.063 615.063H15.3917C7.10741 615.063 0.391693 608.347 0.391693 600.063L0.391693 17Z" fill="#A9723F"/>
<g filter="url(#filter0_d_1_48)">
<path fill-rule="evenodd" clip-rule="evenodd" d="M28.8113 2.61035C20.527 2.61035 13.8113 9.32609 13.8113 17.6104V600.234C13.8113 608.518 20.5271 615.234 28.8113 615.234H415.181C434.51 615.234 450.181 599.564 450.181 580.234V264.931H460.211C468.495 264.931 475.211 258.215 475.211 249.931V78C475.211 69.7157 468.495 63 460.211 63H450.181V37.6104C450.181 18.2804 434.51 2.61035 415.18 2.61035H28.8113Z" fill="#C3AA70"/>
</g>
<g filter="url(#filter1_di_1_48)">
<path fill-rule="evenodd" clip-rule="evenodd" d="M365.137 2.61035H28.8113C20.5271 2.61035 13.8113 9.32609 13.8113 17.6104V600.234C13.8113 608.518 20.5271 615.234 28.8114 615.234H415.181C434.51 615.234 450.181 599.564 450.181 580.234V279.086H387.137C374.986 279.086 365.137 269.237 365.137 257.086V2.61035Z" fill="#DBBC75"/>
</g>
<path d="M86.24 375.64C86.8747 375.565 87.416 375.752 87.864 376.2C88.3493 376.648 88.592 377.189 88.592 377.824C88.592 378.459 88.3493 378.981 87.864 379.392C87.416 379.84 86.8747 380.045 86.24 380.008C85.1947 379.896 84.2053 379.803 83.272 379.728C82.376 379.691 81.4987 379.672 80.64 379.672C79.8187 379.672 78.9787 379.691 78.12 379.728C77.2987 379.803 76.384 379.896 75.376 380.008C74.7413 380.045 74.1813 379.84 73.696 379.392C73.248 378.981 73.024 378.459 73.024 377.824C73.024 377.189 73.248 376.648 73.696 376.2C74.1813 375.752 74.7413 375.565 75.376 375.64C75.7867 375.677 76.2347 375.715 76.72 375.752C77.2053 375.789 77.6907 375.827 78.176 375.864H78.288C78.5493 375.864 78.68 375.715 78.68 375.416V342.656C78.68 342.357 78.5493 342.208 78.288 342.208C77.8027 342.208 77.2987 342.227 76.776 342.264C76.2907 342.301 75.824 342.357 75.376 342.432C74.7413 342.469 74.1813 342.283 73.696 341.872C73.248 341.424 73.024 340.883 73.024 340.248C73.024 339.613 73.248 339.072 73.696 338.624C74.1813 338.176 74.7413 337.989 75.376 338.064C76.4587 338.176 77.448 338.269 78.344 338.344C79.24 338.381 80.1173 338.4 80.976 338.4C81.7973 338.4 82.6187 338.381 83.44 338.344C84.2987 338.269 85.232 338.176 86.24 338.064C86.8747 337.989 87.416 338.176 87.864 338.624C88.3493 339.072 88.592 339.613 88.592 340.248C88.592 340.883 88.3493 341.424 87.864 341.872C87.416 342.283 86.8747 342.469 86.24 342.432C85.8293 342.357 85.3813 342.32 84.896 342.32C84.448 342.283 84 342.245 83.552 342.208H83.44C83.1787 342.208 83.048 342.357 83.048 342.656V375.416C83.048 375.715 83.1973 375.864 83.496 375.864C83.944 375.864 84.392 375.845 84.84 375.808C85.3253 375.733 85.792 375.677 86.24 375.64ZM105.938 376.088C106.46 376.088 106.908 376.275 107.282 376.648C107.655 377.021 107.842 377.488 107.842 378.048C107.842 378.608 107.636 379.075 107.226 379.448C106.815 379.859 106.311 380.045 105.714 380.008C104.556 379.896 103.623 379.803 102.914 379.728C102.204 379.691 101.514 379.672 100.842 379.672C100.058 379.672 99.3109 379.691 98.6016 379.728C97.9296 379.803 97.0522 379.896 95.9696 380.008C95.3722 380.045 94.8682 379.859 94.4576 379.448C94.0469 379.075 93.8416 378.608 93.8416 378.048C93.8416 377.488 94.0282 377.021 94.4016 376.648C94.7749 376.275 95.2229 376.088 95.7456 376.088C96.1189 376.088 96.5109 376.107 96.9216 376.144C97.3696 376.181 97.7989 376.219 98.2096 376.256H98.3216C98.5829 376.256 98.7136 376.107 98.7136 375.808V341.928C98.7136 341.629 98.5829 341.48 98.3216 341.48C97.8736 341.48 97.4256 341.517 96.9776 341.592C96.5669 341.629 96.1562 341.648 95.7456 341.648C95.2229 341.648 94.7749 341.461 94.4016 341.088C94.0282 340.715 93.8416 340.267 93.8416 339.744C93.8416 339.147 94.0469 338.661 94.4576 338.288C94.8682 337.877 95.3722 337.709 95.9696 337.784C96.5296 337.821 97.1269 337.877 97.7616 337.952C98.3962 337.989 99.0122 338.027 99.6096 338.064C100.506 338.101 101.29 338.437 101.962 339.072C102.634 339.707 102.97 340.491 102.97 341.424V375.808C102.97 376.107 103.119 376.256 103.418 376.256C103.866 376.256 104.295 376.237 104.706 376.2C105.154 376.125 105.564 376.088 105.938 376.088ZM124.422 376.088C124.945 376.088 125.393 376.275 125.766 376.648C126.139 377.021 126.326 377.488 126.326 378.048C126.326 378.608 126.121 379.075 125.71 379.448C125.299 379.859 124.795 380.045 124.198 380.008C123.041 379.896 122.107 379.803 121.398 379.728C120.689 379.691 119.998 379.672 119.326 379.672C118.542 379.672 117.795 379.691 117.086 379.728C116.414 379.803 115.537 379.896 114.454 380.008C113.857 380.045 113.353 379.859 112.942 379.448C112.531 379.075 112.326 378.608 112.326 378.048C112.326 377.488 112.513 377.021 112.886 376.648C113.259 376.275 113.707 376.088 114.23 376.088C114.603 376.088 114.995 376.107 115.406 376.144C115.854 376.181 116.283 376.219 116.694 376.256H116.806C117.067 376.256 117.198 376.107 117.198 375.808V341.928C117.198 341.629 117.067 341.48 116.806 341.48C116.358 341.48 115.91 341.517 115.462 341.592C115.051 341.629 114.641 341.648 114.23 341.648C113.707 341.648 113.259 341.461 112.886 341.088C112.513 340.715 112.326 340.267 112.326 339.744C112.326 339.147 112.531 338.661 112.942 338.288C113.353 337.877 113.857 337.709 114.454 337.784C115.014 337.821 115.611 337.877 116.246 337.952C116.881 337.989 117.497 338.027 118.094 338.064C118.99 338.101 119.774 338.437 120.446 339.072C121.118 339.707 121.454 340.491 121.454 341.424V375.808C121.454 376.107 121.603 376.256 121.902 376.256C122.35 376.256 122.779 376.237 123.19 376.2C123.638 376.125 124.049 376.088 124.422 376.088ZM162.058 375.808C162.693 375.733 163.234 375.901 163.682 376.312C164.13 376.723 164.354 377.245 164.354 377.88C164.354 378.477 164.13 378.981 163.682 379.392C163.234 379.84 162.693 380.027 162.058 379.952C161.536 379.877 160.976 379.784 160.378 379.672C159.781 379.597 159.202 379.541 158.642 379.504C157.709 379.467 156.906 379.131 156.234 378.496C155.6 377.861 155.282 377.077 155.282 376.144V375.36C155.282 375.136 155.208 375.005 155.058 374.968C154.946 374.893 154.816 374.949 154.666 375.136C153.546 376.555 152.258 377.712 150.802 378.608C149.346 379.504 147.685 379.952 145.818 379.952C143.242 379.952 140.984 379.28 139.042 377.936C138.221 377.339 137.4 376.461 136.578 375.304C135.794 374.109 135.402 372.541 135.402 370.6V354.528C135.402 354.229 135.272 354.08 135.01 354.08C134.562 354.08 134.114 354.117 133.666 354.192C133.256 354.229 132.845 354.248 132.434 354.248C131.912 354.248 131.464 354.061 131.09 353.688C130.717 353.315 130.53 352.848 130.53 352.288C130.53 351.728 130.736 351.261 131.146 350.888C131.557 350.477 132.042 350.309 132.602 350.384C133.461 350.459 134.133 350.515 134.618 350.552C135.141 350.552 135.682 350.571 136.242 350.608C137.176 350.608 137.96 350.944 138.594 351.616C139.266 352.251 139.602 353.035 139.602 353.968V370.6C139.602 371.832 139.864 372.803 140.386 373.512C140.909 374.184 141.544 374.688 142.29 375.024C143.037 375.36 143.746 375.565 144.418 375.64C145.09 375.715 145.557 375.752 145.818 375.752C147.685 375.752 149.402 375.155 150.97 373.96C152.576 372.728 153.957 371.197 155.114 369.368C155.226 369.144 155.282 368.939 155.282 368.752V354.528C155.282 354.229 155.152 354.08 154.89 354.08C154.48 354.08 154.032 354.117 153.546 354.192C153.098 354.229 152.688 354.248 152.314 354.248C151.792 354.248 151.344 354.061 150.97 353.688C150.597 353.315 150.41 352.848 150.41 352.288C150.41 351.728 150.616 351.261 151.026 350.888C151.437 350.477 151.922 350.309 152.482 350.384C153.341 350.459 154.013 350.515 154.498 350.552C155.021 350.552 155.562 350.571 156.122 350.608C157.056 350.608 157.84 350.944 158.474 351.616C159.146 352.251 159.482 353.035 159.482 353.968V375.64C159.482 375.939 159.632 376.088 159.93 376.088C160.304 376.088 160.658 376.051 160.994 375.976C161.33 375.901 161.685 375.845 162.058 375.808ZM175.485 358.728C175.485 359.661 175.933 360.389 176.829 360.912C177.762 361.435 178.938 361.864 180.357 362.2C181.813 362.536 183.343 362.891 184.949 363.264C186.554 363.637 188.066 364.123 189.485 364.72C190.941 365.317 192.117 366.157 193.013 367.24C193.946 368.285 194.413 369.704 194.413 371.496C194.413 373.027 193.927 374.445 192.957 375.752C192.023 377.021 190.623 378.048 188.757 378.832C186.927 379.579 184.669 379.952 181.981 379.952C180.562 379.952 179.106 379.784 177.613 379.448C176.157 379.112 174.813 378.645 173.581 378.048C172.349 377.413 171.359 376.685 170.613 375.864C169.866 375.005 169.493 374.053 169.493 373.008C169.493 372.112 169.81 371.347 170.445 370.712C171.079 370.077 171.826 369.76 172.685 369.76C173.655 369.76 174.421 370.096 174.981 370.768C175.578 371.403 175.877 372.149 175.877 373.008C175.877 373.157 175.858 373.307 175.821 373.456C175.821 373.568 175.802 373.699 175.765 373.848C175.727 373.885 175.709 373.96 175.709 374.072C175.709 374.259 175.821 374.408 176.045 374.52C176.866 374.856 177.781 375.173 178.789 375.472C179.797 375.771 180.861 375.92 181.981 375.92C183.437 375.92 184.781 375.752 186.013 375.416C187.282 375.043 188.29 374.52 189.037 373.848C189.821 373.176 190.213 372.336 190.213 371.328C190.213 370.283 189.746 369.48 188.813 368.92C187.917 368.323 186.741 367.856 185.285 367.52C183.866 367.147 182.354 366.792 180.749 366.456C179.143 366.083 177.613 365.616 176.157 365.056C174.738 364.459 173.562 363.675 172.629 362.704C171.733 361.696 171.285 360.371 171.285 358.728C171.285 357.235 171.695 355.872 172.517 354.64C173.375 353.371 174.645 352.363 176.325 351.616C178.042 350.832 180.17 350.44 182.709 350.44C184.426 350.44 186.05 350.664 187.581 351.112C189.149 351.56 190.418 352.213 191.389 353.072C192.397 353.931 192.901 354.957 192.901 356.152C192.901 356.264 192.901 356.395 192.901 356.544C192.901 356.656 192.882 356.768 192.845 356.88C192.733 357.627 192.378 358.261 191.781 358.784C191.183 359.269 190.493 359.512 189.709 359.512C188.775 359.512 188.01 359.195 187.413 358.56C186.815 357.925 186.517 357.179 186.517 356.32C186.517 356.208 186.517 356.096 186.517 355.984C186.517 355.835 186.535 355.704 186.573 355.592C186.61 355.555 186.629 355.48 186.629 355.368C186.629 355.144 186.517 355.013 186.293 354.976C185.359 354.565 184.165 354.36 182.709 354.36C181.589 354.36 180.469 354.528 179.349 354.864C178.229 355.163 177.295 355.629 176.549 356.264C175.839 356.899 175.485 357.72 175.485 358.728ZM216.798 370.32C217.433 370.32 217.974 370.544 218.422 370.992C218.87 371.44 219.057 371.981 218.982 372.616C218.422 377.544 215.977 380.008 211.646 380.008C210.227 380.008 208.977 379.672 207.894 379C206.849 378.328 206.027 377.451 205.43 376.368C204.833 375.248 204.534 374.035 204.534 372.728V355.144C204.534 354.808 204.366 354.64 204.03 354.64H200.67C200.147 354.64 199.681 354.453 199.27 354.08C198.897 353.669 198.71 353.203 198.71 352.68C198.71 352.157 198.897 351.709 199.27 351.336C199.681 350.963 200.147 350.776 200.67 350.776H204.03C204.366 350.776 204.534 350.608 204.534 350.272V340.696C204.534 340.099 204.739 339.595 205.15 339.184C205.561 338.773 206.065 338.568 206.662 338.568C207.222 338.568 207.707 338.773 208.118 339.184C208.529 339.595 208.734 340.099 208.734 340.696V350.272C208.734 350.608 208.902 350.776 209.238 350.776H216.014C216.537 350.776 216.985 350.963 217.358 351.336C217.731 351.709 217.918 352.157 217.918 352.68C217.918 353.203 217.731 353.669 217.358 354.08C216.985 354.453 216.537 354.64 216.014 354.64H209.238C208.902 354.64 208.734 354.808 208.734 355.144V372.728C208.734 372.84 208.771 373.157 208.846 373.68C208.958 374.165 209.219 374.651 209.63 375.136C210.041 375.584 210.713 375.808 211.646 375.808C212.729 375.808 213.494 375.509 213.942 374.912C214.39 374.315 214.689 373.4 214.838 372.168C214.913 371.645 215.137 371.216 215.51 370.88C215.883 370.507 216.313 370.32 216.798 370.32ZM248.99 352.232C249.214 352.717 249.326 353.184 249.326 353.632C249.326 354.491 249.008 355.219 248.374 355.816C247.739 356.413 246.992 356.712 246.134 356.712C245.499 356.712 244.92 356.544 244.398 356.208C243.912 355.835 243.52 355.387 243.222 354.864C243.11 354.603 242.904 354.472 242.606 354.472C241.262 354.584 239.974 355.144 238.742 356.152C237.547 357.123 236.483 358.355 235.55 359.848C234.616 361.341 233.87 362.947 233.31 364.664C233.235 364.813 233.198 365.019 233.198 365.28V375.808C233.198 376.107 233.328 376.256 233.59 376.256C234.038 376.256 234.467 376.237 234.878 376.2C235.326 376.125 235.774 376.088 236.222 376.088C236.744 376.088 237.192 376.275 237.566 376.648C237.939 377.021 238.126 377.488 238.126 378.048C238.126 378.608 237.92 379.075 237.51 379.448C237.099 379.859 236.595 380.045 235.998 380.008C234.84 379.896 233.907 379.803 233.198 379.728C232.488 379.691 231.798 379.672 231.126 379.672C230.342 379.672 229.595 379.691 228.886 379.728C228.214 379.803 227.336 379.896 226.254 380.008C225.656 380.045 225.152 379.859 224.742 379.448C224.331 379.075 224.126 378.608 224.126 378.048C224.126 377.488 224.312 377.021 224.686 376.648C225.059 376.275 225.507 376.088 226.03 376.088C226.403 376.088 226.795 376.107 227.206 376.144C227.654 376.181 228.083 376.219 228.494 376.256H228.606C228.867 376.256 228.998 376.107 228.998 375.808V354.976C228.998 354.677 228.867 354.528 228.606 354.528C227.784 354.528 227 354.584 226.254 354.696C225.619 354.733 225.059 354.547 224.574 354.136C224.126 353.688 223.902 353.147 223.902 352.512C223.902 351.877 224.126 351.355 224.574 350.944C225.059 350.496 225.619 350.309 226.254 350.384C227.038 350.459 227.635 350.515 228.046 350.552C228.494 350.589 228.923 350.608 229.334 350.608C229.782 350.608 230.379 350.608 231.126 350.608C231.723 350.608 232.208 350.813 232.582 351.224C232.992 351.635 233.198 352.12 233.198 352.68V355.928C233.198 356.152 233.254 356.301 233.366 356.376C233.515 356.413 233.664 356.339 233.814 356.152C234.934 354.509 236.259 353.147 237.79 352.064C239.358 350.981 241.187 350.309 243.278 350.048C243.502 350.011 243.726 349.992 243.95 349.992C244.174 349.955 244.398 349.936 244.622 349.936C245.592 349.936 246.47 350.104 247.254 350.44C248.075 350.776 248.654 351.373 248.99 352.232ZM278.313 375.696C278.873 375.696 279.339 375.92 279.713 376.368C280.123 376.779 280.329 377.264 280.329 377.824C280.329 378.496 280.086 379.037 279.601 379.448C279.115 379.896 278.555 380.064 277.921 379.952C277.435 379.84 276.913 379.747 276.353 379.672C275.793 379.597 275.233 379.541 274.673 379.504C273.926 379.504 273.254 379.28 272.657 378.832C272.059 378.384 271.649 377.805 271.425 377.096C271.313 376.76 271.126 376.704 270.865 376.928C269.595 377.899 268.214 378.645 266.721 379.168C265.227 379.691 263.454 379.952 261.401 379.952C258.937 379.952 256.883 379.243 255.241 377.824C253.598 376.368 252.777 374.483 252.777 372.168C252.777 369.517 253.71 367.352 255.577 365.672C257.443 363.992 259.907 363.152 262.969 363.152C264.126 363.152 265.358 363.283 266.665 363.544C267.971 363.805 269.315 364.216 270.697 364.776C270.734 364.776 270.771 364.795 270.809 364.832C270.846 364.832 270.883 364.832 270.921 364.832C271.182 364.832 271.313 364.683 271.313 364.384V362.144C271.313 359.493 270.603 357.515 269.185 356.208C267.803 354.901 266.179 354.248 264.313 354.248C263.081 354.248 261.811 354.528 260.505 355.088C260.243 355.237 260.15 355.461 260.225 355.76C260.337 356.096 260.393 356.413 260.393 356.712C260.393 357.533 260.094 358.28 259.497 358.952C258.937 359.624 258.171 359.96 257.201 359.96C256.193 359.96 255.39 359.624 254.793 358.952C254.233 358.243 253.953 357.44 253.953 356.544C253.953 355.611 254.289 354.752 254.961 353.968C255.969 352.811 257.219 351.915 258.713 351.28C260.243 350.645 261.867 350.328 263.585 350.328C266.497 350.328 268.811 350.869 270.529 351.952C272.283 353.035 273.534 354.472 274.281 356.264C275.065 358.056 275.457 360.016 275.457 362.144V375.64C275.457 375.939 275.606 376.088 275.905 376.088C276.315 376.088 276.726 376.032 277.137 375.92C277.547 375.771 277.939 375.696 278.313 375.696ZM261.401 375.92C263.566 375.845 265.377 375.491 266.833 374.856C268.289 374.221 269.707 373.195 271.089 371.776C271.238 371.589 271.313 371.384 271.313 371.16V369.592C271.313 369.331 271.201 369.144 270.977 369.032C270.193 368.584 269.203 368.136 268.009 367.688C266.814 367.24 265.209 367.016 263.193 367.016C260.878 367.016 259.217 367.539 258.209 368.584C257.238 369.629 256.753 370.824 256.753 372.168C256.753 373.064 256.995 373.792 257.481 374.352C257.966 374.875 258.563 375.267 259.273 375.528C260.019 375.789 260.729 375.92 261.401 375.92ZM301.509 370.32C302.143 370.32 302.685 370.544 303.133 370.992C303.581 371.44 303.767 371.981 303.693 372.616C303.133 377.544 300.687 380.008 296.357 380.008C294.938 380.008 293.687 379.672 292.605 379C291.559 378.328 290.738 377.451 290.141 376.368C289.543 375.248 289.245 374.035 289.245 372.728V355.144C289.245 354.808 289.077 354.64 288.741 354.64H285.381C284.858 354.64 284.391 354.453 283.981 354.08C283.607 353.669 283.421 353.203 283.421 352.68C283.421 352.157 283.607 351.709 283.981 351.336C284.391 350.963 284.858 350.776 285.381 350.776H288.741C289.077 350.776 289.245 350.608 289.245 350.272V340.696C289.245 340.099 289.45 339.595 289.861 339.184C290.271 338.773 290.775 338.568 291.373 338.568C291.933 338.568 292.418 338.773 292.829 339.184C293.239 339.595 293.445 340.099 293.445 340.696V350.272C293.445 350.608 293.613 350.776 293.949 350.776H300.725C301.247 350.776 301.695 350.963 302.069 351.336C302.442 351.709 302.629 352.157 302.629 352.68C302.629 353.203 302.442 353.669 302.069 354.08C301.695 354.453 301.247 354.64 300.725 354.64H293.949C293.613 354.64 293.445 354.808 293.445 355.144V372.728C293.445 372.84 293.482 373.157 293.557 373.68C293.669 374.165 293.93 374.651 294.341 375.136C294.751 375.584 295.423 375.808 296.357 375.808C297.439 375.808 298.205 375.509 298.653 374.912C299.101 374.315 299.399 373.4 299.549 372.168C299.623 371.645 299.847 371.216 300.221 370.88C300.594 370.507 301.023 370.32 301.509 370.32ZM323.732 380.008C321.642 380.008 319.682 379.635 317.852 378.888C316.023 378.104 314.418 377.04 313.036 375.696C311.655 374.315 310.572 372.728 309.788 370.936C309.004 369.144 308.612 367.221 308.612 365.168C308.612 363.115 309.004 361.192 309.788 359.4C310.572 357.608 311.655 356.04 313.036 354.696C314.418 353.315 316.023 352.251 317.852 351.504C319.682 350.72 321.642 350.328 323.732 350.328C325.823 350.328 327.764 350.72 329.556 351.504C331.386 352.251 332.991 353.315 334.372 354.696C335.754 356.04 336.836 357.608 337.62 359.4C338.404 361.192 338.796 363.115 338.796 365.168C338.796 367.221 338.404 369.144 337.62 370.936C336.836 372.728 335.754 374.315 334.372 375.696C332.991 377.04 331.386 378.104 329.556 378.888C327.764 379.635 325.823 380.008 323.732 380.008ZM323.732 376.032C325.86 376.032 327.746 375.528 329.388 374.52C331.031 373.512 332.319 372.187 333.252 370.544C334.186 368.901 334.652 367.109 334.652 365.168C334.652 363.227 334.167 361.435 333.196 359.792C332.263 358.149 330.975 356.824 329.332 355.816C327.69 354.808 325.823 354.304 323.732 354.304C321.567 354.304 319.663 354.808 318.02 355.816C316.378 356.824 315.09 358.149 314.156 359.792C313.223 361.435 312.756 363.227 312.756 365.168C312.756 367.109 313.223 368.901 314.156 370.544C315.127 372.187 316.434 373.512 318.076 374.52C319.719 375.528 321.604 376.032 323.732 376.032ZM366.13 352.232C366.354 352.717 366.466 353.184 366.466 353.632C366.466 354.491 366.149 355.219 365.514 355.816C364.88 356.413 364.133 356.712 363.274 356.712C362.64 356.712 362.061 356.544 361.538 356.208C361.053 355.835 360.661 355.387 360.362 354.864C360.25 354.603 360.045 354.472 359.746 354.472C358.402 354.584 357.114 355.144 355.882 356.152C354.688 357.123 353.624 358.355 352.69 359.848C351.757 361.341 351.01 362.947 350.45 364.664C350.376 364.813 350.338 365.019 350.338 365.28V375.808C350.338 376.107 350.469 376.256 350.73 376.256C351.178 376.256 351.608 376.237 352.018 376.2C352.466 376.125 352.914 376.088 353.362 376.088C353.885 376.088 354.333 376.275 354.706 376.648C355.08 377.021 355.266 377.488 355.266 378.048C355.266 378.608 355.061 379.075 354.65 379.448C354.24 379.859 353.736 380.045 353.138 380.008C351.981 379.896 351.048 379.803 350.338 379.728C349.629 379.691 348.938 379.672 348.266 379.672C347.482 379.672 346.736 379.691 346.026 379.728C345.354 379.803 344.477 379.896 343.394 380.008C342.797 380.045 342.293 379.859 341.882 379.448C341.472 379.075 341.266 378.608 341.266 378.048C341.266 377.488 341.453 377.021 341.826 376.648C342.2 376.275 342.648 376.088 343.17 376.088C343.544 376.088 343.936 376.107 344.346 376.144C344.794 376.181 345.224 376.219 345.634 376.256H345.746C346.008 376.256 346.138 376.107 346.138 375.808V354.976C346.138 354.677 346.008 354.528 345.746 354.528C344.925 354.528 344.141 354.584 343.394 354.696C342.76 354.733 342.2 354.547 341.714 354.136C341.266 353.688 341.042 353.147 341.042 352.512C341.042 351.877 341.266 351.355 341.714 350.944C342.2 350.496 342.76 350.309 343.394 350.384C344.178 350.459 344.776 350.515 345.186 350.552C345.634 350.589 346.064 350.608 346.474 350.608C346.922 350.608 347.52 350.608 348.266 350.608C348.864 350.608 349.349 350.813 349.722 351.224C350.133 351.635 350.338 352.12 350.338 352.68V355.928C350.338 356.152 350.394 356.301 350.506 356.376C350.656 356.413 350.805 356.339 350.954 356.152C352.074 354.509 353.4 353.147 354.93 352.064C356.498 350.981 358.328 350.309 360.418 350.048C360.642 350.011 360.866 349.992 361.09 349.992C361.314 349.955 361.538 349.936 361.762 349.936C362.733 349.936 363.61 350.104 364.394 350.44C365.216 350.776 365.794 351.373 366.13 352.232Z" fill="#302623"/>
<defs>
<filter id="filter0_d_1_48" x="11.8113" y="0.610352" width="471.4" height="622.623" filterUnits="userSpaceOnUse" color-interpolation-filters="sRGB">
<feFlood flood-opacity="0" result="BackgroundImageFix"/>
<feColorMatrix in="SourceAlpha" type="matrix" values="0 0 0 0 0 0 0 0 0 0 0 0 0 0 0 0 0 0 127 0" result="hardAlpha"/>
<feOffset dx="3" dy="3"/>
<feGaussianBlur stdDeviation="2.5"/>
<feComposite in2="hardAlpha" operator="out"/>
<feColorMatrix type="matrix" values="0 0 0 0 0 0 0 0 0 0 0 0 0 0 0 0 0 0 0.35 0"/>
<feBlend mode="multiply" in2="BackgroundImageFix" result="effect1_dropShadow_1_48"/>
<feBlend mode="normal" in="SourceGraphic" in2="effect1_dropShadow_1_48" result="shape"/>
</filter>
<filter id="filter1_di_1_48" x="11.8113" y="-4.38965" width="448.369" height="627.623" filterUnits="userSpaceOnUse" color-interpolation-filters="sRGB">
<feFlood flood-opacity="0" result="BackgroundImageFix"/>
<feColorMatrix in="SourceAlpha" type="matrix" values="0 0 0 0 0 0 0 0 0 0 0 0 0 0 0 0 0 0 127 0" result="hardAlpha"/>
<feOffset dx="5" dy="3"/>
<feGaussianBlur stdDeviation="2.5"/>
<feComposite in2="hardAlpha" operator="out"/>
<feColorMatrix type="matrix" values="0 0 0 0 0 0 0 0 0 0 0 0 0 0 0 0 0 0 0.26 0"/>
<feBlend mode="multiply" in2="BackgroundImageFix" result="effect1_dropShadow_1_48"/>
<feBlend mode="normal" in="SourceGraphic" in2="effect1_dropShadow_1_48" result="shape"/>
<feColorMatrix in="SourceAlpha" type="matrix" values="0 0 0 0 0 0 0 0 0 0 0 0 0 0 0 0 0 0 127 0" result="hardAlpha"/>
<feOffset dx="-2" dy="-7"/>
<feGaussianBlur stdDeviation="7.15"/>
<feComposite in2="hardAlpha" operator="arithmetic" k2="-1" k3="1"/>
<feColorMatrix type="matrix" values="0 0 0 0 0 0 0 0 0 0 0 0 0 0 0 0 0 0 0.14 0"/>
<feBlend mode="normal" in2="shape" result="effect2_innerShadow_1_48"/>
</filter>
</defs>
</svg>
