<svg width="184" height="221" viewBox="0 0 184 221" fill="none" xmlns="http://www.w3.org/2000/svg">
<rect x="0.598526" y="0.720642" width="183.062" height="219.636" fill="#D9D9D9"/>
<path d="M8.35541 8.73657L176.679 8.73657V171.459H8.35541L8.35541 8.73657Z" fill="#383838"/>
<path d="M31.632 203.488C31.888 203.456 32.104 203.52 32.28 203.68C32.456 203.856 32.544 204.072 32.544 204.328C32.544 204.568 32.456 204.768 32.28 204.928C32.104 205.088 31.888 205.16 31.632 205.144C31.136 205.096 30.744 205.064 30.456 205.048C30.168 205.032 29.896 205.024 29.64 205.024C29.352 205.024 29.064 205.032 28.776 205.048C28.504 205.08 28.136 205.112 27.672 205.144C27.416 205.16 27.2 205.088 27.024 204.928C26.848 204.768 26.76 204.568 26.76 204.328C26.76 204.072 26.848 203.856 27.024 203.68C27.2 203.52 27.416 203.456 27.672 203.488L28.536 203.56H28.584C28.696 203.56 28.752 203.496 28.752 203.368V198.28C28.752 198.2 28.728 198.144 28.68 198.112C28.632 198.08 28.568 198.096 28.488 198.16C28.04 198.544 27.544 198.848 27 199.072C26.456 199.296 25.88 199.408 25.272 199.408C24.296 199.408 23.432 199.224 22.68 198.856C21.928 198.488 21.288 198 20.76 197.392C20.248 196.768 19.856 196.08 19.584 195.328C19.328 194.576 19.2 193.824 19.2 193.072C19.2 192.336 19.32 191.6 19.56 190.864C19.8 190.112 20.16 189.424 20.64 188.8C21.12 188.176 21.72 187.68 22.44 187.312C23.176 186.928 24.04 186.736 25.032 186.736C25.736 186.736 26.376 186.888 26.952 187.192C27.528 187.48 28.04 187.856 28.488 188.32C28.536 188.368 28.584 188.392 28.632 188.392C28.712 188.392 28.752 188.336 28.752 188.224V187.768C28.752 187.512 28.84 187.296 29.016 187.12C29.192 186.944 29.4 186.856 29.64 186.856C29.992 186.856 30.352 186.84 30.72 186.808C31.088 186.776 31.432 186.744 31.752 186.712C32.024 186.68 32.256 186.76 32.448 186.952C32.64 187.144 32.736 187.376 32.736 187.648C32.736 187.92 32.64 188.152 32.448 188.344C32.256 188.52 32.024 188.6 31.752 188.584C31.592 188.552 31.432 188.536 31.272 188.536C31.112 188.52 30.944 188.504 30.768 188.488H30.72C30.608 188.488 30.552 188.552 30.552 188.68V203.368C30.552 203.528 30.632 203.592 30.792 203.56L31.632 203.488ZM25.224 197.704C26.008 197.704 26.688 197.552 27.264 197.248C27.84 196.944 28.304 196.56 28.656 196.096C28.72 196.016 28.752 195.928 28.752 195.832V190.6C28.752 190.504 28.72 190.416 28.656 190.336C28.24 189.76 27.736 189.312 27.144 188.992C26.552 188.656 25.904 188.488 25.2 188.488C24.368 188.488 23.64 188.688 23.016 189.088C22.408 189.488 21.936 190.032 21.6 190.72C21.264 191.408 21.096 192.184 21.096 193.048C21.096 193.896 21.272 194.68 21.624 195.4C21.992 196.104 22.488 196.664 23.112 197.08C23.736 197.496 24.44 197.704 25.224 197.704ZM47.2114 197.632C47.4834 197.6 47.7154 197.672 47.9074 197.848C48.0994 198.024 48.1954 198.248 48.1954 198.52C48.1954 198.776 48.0994 198.992 47.9074 199.168C47.7154 199.36 47.4834 199.44 47.2114 199.408C46.9874 199.376 46.7474 199.336 46.4914 199.288C46.2354 199.256 45.9874 199.232 45.7474 199.216C45.3474 199.2 45.0034 199.056 44.7154 198.784C44.4434 198.512 44.3074 198.176 44.3074 197.776V197.44C44.3074 197.344 44.2754 197.288 44.2114 197.272C44.1634 197.24 44.1074 197.264 44.0434 197.344C43.5634 197.952 43.0114 198.448 42.3874 198.832C41.7634 199.216 41.0514 199.408 40.2514 199.408C39.1474 199.408 38.1794 199.12 37.3474 198.544C36.9954 198.288 36.6434 197.912 36.2914 197.416C35.9554 196.904 35.7874 196.232 35.7874 195.4V188.512C35.7874 188.384 35.7314 188.32 35.6194 188.32C35.4274 188.32 35.2354 188.336 35.0434 188.368C34.8674 188.384 34.6914 188.392 34.5154 188.392C34.2914 188.392 34.0994 188.312 33.9394 188.152C33.7794 187.992 33.6994 187.792 33.6994 187.552C33.6994 187.312 33.7874 187.112 33.9634 186.952C34.1394 186.776 34.3474 186.704 34.5874 186.736C34.9554 186.768 35.2434 186.792 35.4514 186.808C35.6754 186.808 35.9074 186.816 36.1474 186.832C36.5474 186.832 36.8834 186.976 37.1554 187.264C37.4434 187.536 37.5874 187.872 37.5874 188.272V195.4C37.5874 195.928 37.6994 196.344 37.9234 196.648C38.1474 196.936 38.4194 197.152 38.7394 197.296C39.0594 197.44 39.3634 197.528 39.6514 197.56C39.9394 197.592 40.1394 197.608 40.2514 197.608C41.0514 197.608 41.7874 197.352 42.4594 196.84C43.1474 196.312 43.7394 195.656 44.2354 194.872C44.2834 194.776 44.3074 194.688 44.3074 194.608V188.512C44.3074 188.384 44.2514 188.32 44.1394 188.32C43.9634 188.32 43.7714 188.336 43.5634 188.368C43.3714 188.384 43.1954 188.392 43.0354 188.392C42.8114 188.392 42.6194 188.312 42.4594 188.152C42.2994 187.992 42.2194 187.792 42.2194 187.552C42.2194 187.312 42.3074 187.112 42.4834 186.952C42.6594 186.776 42.8674 186.704 43.1074 186.736C43.4754 186.768 43.7634 186.792 43.9714 186.808C44.1954 186.808 44.4274 186.816 44.6674 186.832C45.0674 186.832 45.4034 186.976 45.6754 187.264C45.9634 187.536 46.1074 187.872 46.1074 188.272V197.56C46.1074 197.688 46.1714 197.752 46.2994 197.752C46.4594 197.752 46.6114 197.736 46.7554 197.704C46.8994 197.672 47.0514 197.648 47.2114 197.632ZM53.3976 184.624C52.9976 184.624 52.6536 184.488 52.3656 184.216C52.0936 183.928 51.9576 183.584 51.9576 183.184C51.9576 182.768 52.0936 182.424 52.3656 182.152C52.6536 181.88 52.9976 181.744 53.3976 181.744C53.7976 181.744 54.1336 181.88 54.4056 182.152C54.6936 182.424 54.8376 182.768 54.8376 183.184C54.8376 183.584 54.6936 183.928 54.4056 184.216C54.1336 184.488 53.7976 184.624 53.3976 184.624ZM51.3096 199.432C51.0376 199.448 50.7976 199.36 50.5896 199.168C50.3976 198.992 50.3016 198.768 50.3016 198.496C50.3016 198.224 50.3976 197.992 50.5896 197.8C50.7976 197.608 51.0376 197.528 51.3096 197.56C51.4536 197.576 51.6056 197.592 51.7656 197.608C51.9416 197.624 52.1096 197.64 52.2696 197.656H52.3176C52.4296 197.656 52.4856 197.584 52.4856 197.44V188.704C52.4856 188.576 52.4296 188.512 52.3176 188.512C51.9656 188.512 51.6296 188.536 51.3096 188.584C51.0376 188.6 50.7976 188.52 50.5896 188.344C50.3976 188.152 50.3016 187.92 50.3016 187.648C50.3016 187.376 50.3976 187.144 50.5896 186.952C50.7976 186.76 51.0376 186.68 51.3096 186.712C51.7576 186.744 52.0696 186.776 52.2456 186.808C52.4216 186.824 52.5416 186.832 52.6056 186.832C52.6856 186.832 52.7736 186.832 52.8696 186.832C53.2696 186.832 53.6056 186.976 53.8776 187.264C54.1656 187.536 54.3096 187.872 54.3096 188.272V197.44C54.3096 197.584 54.3656 197.656 54.4776 197.656C54.6536 197.656 54.8216 197.648 54.9816 197.632C55.1576 197.6 55.3256 197.576 55.4856 197.56C55.7576 197.528 55.9896 197.608 56.1816 197.8C56.3736 197.992 56.4696 198.224 56.4696 198.496C56.4696 198.768 56.3736 198.992 56.1816 199.168C55.9896 199.36 55.7576 199.448 55.4856 199.432C55.1656 199.4 54.8216 199.368 54.4536 199.336C54.0856 199.304 53.7336 199.288 53.3976 199.288C53.0616 199.288 52.7096 199.304 52.3416 199.336C51.9736 199.368 51.6296 199.4 51.3096 199.432ZM67.239 190.312C67.239 190.712 67.431 191.024 67.815 191.248C68.215 191.472 68.719 191.656 69.327 191.8C69.951 191.944 70.607 192.096 71.295 192.256C71.983 192.416 72.631 192.624 73.239 192.88C73.863 193.136 74.367 193.496 74.751 193.96C75.151 194.408 75.351 195.016 75.351 195.784C75.351 196.44 75.143 197.048 74.727 197.608C74.327 198.152 73.727 198.592 72.927 198.928C72.143 199.248 71.175 199.408 70.023 199.408C69.415 199.408 68.791 199.336 68.151 199.192C67.527 199.048 66.951 198.848 66.423 198.592C65.895 198.32 65.471 198.008 65.151 197.656C64.831 197.288 64.671 196.88 64.671 196.432C64.671 196.048 64.807 195.72 65.079 195.448C65.351 195.176 65.671 195.04 66.039 195.04C66.455 195.04 66.783 195.184 67.023 195.472C67.279 195.744 67.407 196.064 67.407 196.432C67.407 196.496 67.399 196.56 67.383 196.624C67.383 196.672 67.375 196.728 67.359 196.792C67.343 196.808 67.335 196.84 67.335 196.888C67.335 196.968 67.383 197.032 67.479 197.08C67.831 197.224 68.223 197.36 68.655 197.488C69.087 197.616 69.543 197.68 70.023 197.68C70.647 197.68 71.223 197.608 71.751 197.464C72.295 197.304 72.727 197.08 73.047 196.792C73.383 196.504 73.551 196.144 73.551 195.712C73.551 195.264 73.351 194.92 72.951 194.68C72.567 194.424 72.063 194.224 71.439 194.08C70.831 193.92 70.183 193.768 69.495 193.624C68.807 193.464 68.151 193.264 67.527 193.024C66.919 192.768 66.415 192.432 66.015 192.016C65.631 191.584 65.439 191.016 65.439 190.312C65.439 189.672 65.615 189.088 65.967 188.56C66.335 188.016 66.879 187.584 67.599 187.264C68.335 186.928 69.247 186.76 70.335 186.76C71.071 186.76 71.767 186.856 72.423 187.048C73.095 187.24 73.639 187.52 74.055 187.888C74.487 188.256 74.703 188.696 74.703 189.208C74.703 189.256 74.703 189.312 74.703 189.376C74.703 189.424 74.695 189.472 74.679 189.52C74.631 189.84 74.479 190.112 74.223 190.336C73.967 190.544 73.671 190.648 73.335 190.648C72.935 190.648 72.607 190.512 72.351 190.24C72.095 189.968 71.967 189.648 71.967 189.28C71.967 189.232 71.967 189.184 71.967 189.136C71.967 189.072 71.975 189.016 71.991 188.968C72.007 188.952 72.015 188.92 72.015 188.872C72.015 188.776 71.967 188.72 71.871 188.704C71.471 188.528 70.959 188.44 70.335 188.44C69.855 188.44 69.375 188.512 68.895 188.656C68.415 188.784 68.015 188.984 67.695 189.256C67.391 189.528 67.239 189.88 67.239 190.312ZM90.9926 197.632C91.2646 197.6 91.4966 197.672 91.6886 197.848C91.8806 198.024 91.9766 198.248 91.9766 198.52C91.9766 198.776 91.8806 198.992 91.6886 199.168C91.4966 199.36 91.2646 199.44 90.9926 199.408C90.7686 199.376 90.5286 199.336 90.2726 199.288C90.0166 199.256 89.7686 199.232 89.5286 199.216C89.1286 199.2 88.7846 199.056 88.4966 198.784C88.2246 198.512 88.0886 198.176 88.0886 197.776V197.44C88.0886 197.344 88.0566 197.288 87.9926 197.272C87.9446 197.24 87.8886 197.264 87.8246 197.344C87.3446 197.952 86.7926 198.448 86.1686 198.832C85.5446 199.216 84.8326 199.408 84.0326 199.408C82.9286 199.408 81.9606 199.12 81.1286 198.544C80.7766 198.288 80.4246 197.912 80.0726 197.416C79.7366 196.904 79.5686 196.232 79.5686 195.4V188.512C79.5686 188.384 79.5126 188.32 79.4006 188.32C79.2086 188.32 79.0166 188.336 78.8246 188.368C78.6486 188.384 78.4726 188.392 78.2966 188.392C78.0726 188.392 77.8806 188.312 77.7206 188.152C77.5606 187.992 77.4806 187.792 77.4806 187.552C77.4806 187.312 77.5686 187.112 77.7446 186.952C77.9206 186.776 78.1286 186.704 78.3686 186.736C78.7366 186.768 79.0246 186.792 79.2326 186.808C79.4566 186.808 79.6886 186.816 79.9286 186.832C80.3286 186.832 80.6646 186.976 80.9366 187.264C81.2246 187.536 81.3686 187.872 81.3686 188.272V195.4C81.3686 195.928 81.4806 196.344 81.7046 196.648C81.9286 196.936 82.2006 197.152 82.5206 197.296C82.8406 197.44 83.1446 197.528 83.4326 197.56C83.7206 197.592 83.9206 197.608 84.0326 197.608C84.8326 197.608 85.5686 197.352 86.2406 196.84C86.9286 196.312 87.5206 195.656 88.0166 194.872C88.0646 194.776 88.0886 194.688 88.0886 194.608V188.512C88.0886 188.384 88.0326 188.32 87.9206 188.32C87.7446 188.32 87.5526 188.336 87.3446 188.368C87.1526 188.384 86.9766 188.392 86.8166 188.392C86.5926 188.392 86.4006 188.312 86.2406 188.152C86.0806 187.992 86.0006 187.792 86.0006 187.552C86.0006 187.312 86.0886 187.112 86.2646 186.952C86.4406 186.776 86.6486 186.704 86.8886 186.736C87.2566 186.768 87.5446 186.792 87.7526 186.808C87.9766 186.808 88.2086 186.816 88.4486 186.832C88.8486 186.832 89.1846 186.976 89.4566 187.264C89.7446 187.536 89.8886 187.872 89.8886 188.272V197.56C89.8886 197.688 89.9526 197.752 90.0806 197.752C90.2406 197.752 90.3926 197.736 90.5366 197.704C90.6806 197.672 90.8326 197.648 90.9926 197.632ZM97.1788 184.624C96.7788 184.624 96.4348 184.488 96.1468 184.216C95.8748 183.928 95.7388 183.584 95.7388 183.184C95.7388 182.768 95.8748 182.424 96.1468 182.152C96.4348 181.88 96.7788 181.744 97.1788 181.744C97.5788 181.744 97.9148 181.88 98.1868 182.152C98.4748 182.424 98.6188 182.768 98.6188 183.184C98.6188 183.584 98.4748 183.928 98.1868 184.216C97.9148 184.488 97.5788 184.624 97.1788 184.624ZM95.0908 199.432C94.8188 199.448 94.5788 199.36 94.3708 199.168C94.1788 198.992 94.0828 198.768 94.0828 198.496C94.0828 198.224 94.1788 197.992 94.3708 197.8C94.5788 197.608 94.8188 197.528 95.0908 197.56C95.2348 197.576 95.3868 197.592 95.5468 197.608C95.7228 197.624 95.8908 197.64 96.0508 197.656H96.0988C96.2108 197.656 96.2668 197.584 96.2668 197.44V188.704C96.2668 188.576 96.2108 188.512 96.0988 188.512C95.7468 188.512 95.4108 188.536 95.0908 188.584C94.8188 188.6 94.5788 188.52 94.3708 188.344C94.1788 188.152 94.0828 187.92 94.0828 187.648C94.0828 187.376 94.1788 187.144 94.3708 186.952C94.5788 186.76 94.8188 186.68 95.0908 186.712C95.5388 186.744 95.8508 186.776 96.0268 186.808C96.2028 186.824 96.3228 186.832 96.3868 186.832C96.4668 186.832 96.5548 186.832 96.6508 186.832C97.0508 186.832 97.3868 186.976 97.6588 187.264C97.9468 187.536 98.0908 187.872 98.0908 188.272V197.44C98.0908 197.584 98.1468 197.656 98.2588 197.656C98.4348 197.656 98.6028 197.648 98.7628 197.632C98.9388 197.6 99.1068 197.576 99.2668 197.56C99.5388 197.528 99.7708 197.608 99.9628 197.8C100.155 197.992 100.251 198.224 100.251 198.496C100.251 198.768 100.155 198.992 99.9628 199.168C99.7708 199.36 99.5388 199.448 99.2668 199.432C98.9468 199.4 98.6028 199.368 98.2348 199.336C97.8668 199.304 97.5148 199.288 97.1788 199.288C96.8428 199.288 96.4908 199.304 96.1228 199.336C95.7548 199.368 95.4108 199.4 95.0908 199.432ZM105.02 190.312C105.02 190.712 105.212 191.024 105.596 191.248C105.996 191.472 106.5 191.656 107.108 191.8C107.732 191.944 108.388 192.096 109.076 192.256C109.764 192.416 110.412 192.624 111.02 192.88C111.644 193.136 112.148 193.496 112.532 193.96C112.932 194.408 113.132 195.016 113.132 195.784C113.132 196.44 112.924 197.048 112.508 197.608C112.108 198.152 111.508 198.592 110.708 198.928C109.924 199.248 108.956 199.408 107.804 199.408C107.196 199.408 106.572 199.336 105.932 199.192C105.308 199.048 104.732 198.848 104.204 198.592C103.676 198.32 103.252 198.008 102.932 197.656C102.612 197.288 102.452 196.88 102.452 196.432C102.452 196.048 102.588 195.72 102.86 195.448C103.132 195.176 103.452 195.04 103.82 195.04C104.236 195.04 104.564 195.184 104.804 195.472C105.06 195.744 105.188 196.064 105.188 196.432C105.188 196.496 105.18 196.56 105.164 196.624C105.164 196.672 105.156 196.728 105.14 196.792C105.124 196.808 105.116 196.84 105.116 196.888C105.116 196.968 105.164 197.032 105.26 197.08C105.612 197.224 106.004 197.36 106.436 197.488C106.868 197.616 107.324 197.68 107.804 197.68C108.428 197.68 109.004 197.608 109.532 197.464C110.076 197.304 110.508 197.08 110.828 196.792C111.164 196.504 111.332 196.144 111.332 195.712C111.332 195.264 111.132 194.92 110.732 194.68C110.348 194.424 109.844 194.224 109.22 194.08C108.612 193.92 107.964 193.768 107.276 193.624C106.588 193.464 105.932 193.264 105.308 193.024C104.7 192.768 104.196 192.432 103.796 192.016C103.412 191.584 103.22 191.016 103.22 190.312C103.22 189.672 103.396 189.088 103.748 188.56C104.116 188.016 104.66 187.584 105.38 187.264C106.116 186.928 107.028 186.76 108.116 186.76C108.852 186.76 109.548 186.856 110.204 187.048C110.876 187.24 111.42 187.52 111.836 187.888C112.268 188.256 112.484 188.696 112.484 189.208C112.484 189.256 112.484 189.312 112.484 189.376C112.484 189.424 112.476 189.472 112.46 189.52C112.412 189.84 112.26 190.112 112.004 190.336C111.748 190.544 111.452 190.648 111.116 190.648C110.716 190.648 110.388 190.512 110.132 190.24C109.876 189.968 109.748 189.648 109.748 189.28C109.748 189.232 109.748 189.184 109.748 189.136C109.748 189.072 109.756 189.016 109.772 188.968C109.788 188.952 109.796 188.92 109.796 188.872C109.796 188.776 109.748 188.72 109.652 188.704C109.252 188.528 108.74 188.44 108.116 188.44C107.636 188.44 107.156 188.512 106.676 188.656C106.196 188.784 105.796 188.984 105.476 189.256C105.172 189.528 105.02 189.88 105.02 190.312ZM121.622 191.344H117.23C116.926 191.344 116.702 191.248 116.558 191.056C116.414 190.864 116.342 190.656 116.342 190.432C116.342 190.208 116.414 190 116.558 189.808C116.702 189.616 116.926 189.52 117.23 189.52H121.622C121.926 189.52 122.15 189.616 122.294 189.808C122.454 190 122.534 190.208 122.534 190.432C122.534 190.656 122.454 190.864 122.294 191.056C122.15 191.248 121.926 191.344 121.622 191.344ZM130.141 184.552C129.741 184.552 129.397 184.416 129.109 184.144C128.837 183.856 128.701 183.512 128.701 183.112C128.701 182.712 128.837 182.376 129.109 182.104C129.397 181.816 129.741 181.672 130.141 181.672C130.541 181.672 130.877 181.816 131.149 182.104C131.437 182.376 131.581 182.712 131.581 183.112C131.581 183.512 131.437 183.856 131.149 184.144C130.877 184.416 130.541 184.552 130.141 184.552ZM126.061 205.216C125.357 205.216 124.701 205.056 124.093 204.736C123.469 204.432 122.973 204.024 122.605 203.512C122.237 203.016 122.053 202.48 122.053 201.904C122.053 201.776 122.061 201.648 122.077 201.52C122.093 201.392 122.125 201.264 122.173 201.136C122.301 200.768 122.501 200.496 122.773 200.32C123.029 200.16 123.309 200.08 123.613 200.08C123.997 200.08 124.349 200.208 124.669 200.464C124.989 200.736 125.149 201.112 125.149 201.592C125.149 202.056 124.981 202.432 124.645 202.72C124.501 202.832 124.493 202.936 124.621 203.032C125.021 203.32 125.501 203.464 126.061 203.464C127.085 203.464 127.869 203.152 128.413 202.528C128.957 201.904 129.229 201.024 129.229 199.888V188.56C129.229 188.432 129.173 188.368 129.061 188.368C128.901 188.368 128.725 188.376 128.533 188.392C128.357 188.408 128.181 188.432 128.005 188.464C127.749 188.496 127.525 188.424 127.333 188.248C127.157 188.072 127.069 187.856 127.069 187.6C127.069 187.344 127.157 187.128 127.333 186.952C127.525 186.776 127.749 186.704 128.005 186.736C128.389 186.768 128.685 186.8 128.893 186.832C129.101 186.864 129.341 186.88 129.613 186.88C130.013 186.88 130.349 187.024 130.621 187.312C130.909 187.584 131.053 187.92 131.053 188.32V199.888C131.053 200.976 130.837 201.92 130.405 202.72C129.989 203.52 129.405 204.136 128.653 204.568C127.917 205 127.053 205.216 126.061 205.216ZM144.623 193.864H136.223C136.063 193.864 135.999 193.944 136.031 194.104C136.175 194.808 136.455 195.432 136.871 195.976C137.287 196.52 137.799 196.944 138.407 197.248C139.015 197.552 139.671 197.704 140.375 197.704C140.983 197.704 141.559 197.576 142.103 197.32C142.663 197.048 143.143 196.688 143.543 196.24C143.783 196 144.039 195.88 144.311 195.88C144.487 195.88 144.655 195.936 144.815 196.048C145.071 196.224 145.199 196.464 145.199 196.768C145.199 196.976 145.135 197.144 145.007 197.272C144.431 197.944 143.735 198.472 142.919 198.856C142.119 199.224 141.271 199.408 140.375 199.408C139.223 199.408 138.175 199.12 137.231 198.544C136.303 197.968 135.559 197.2 134.999 196.24C134.455 195.28 134.183 194.224 134.183 193.072C134.183 191.904 134.439 190.84 134.951 189.88C135.463 188.92 136.167 188.152 137.063 187.576C137.975 187 138.999 186.712 140.135 186.712C141.255 186.712 142.231 186.952 143.063 187.432C143.895 187.912 144.559 188.584 145.055 189.448C145.567 190.296 145.879 191.288 145.991 192.424C146.039 192.824 145.919 193.168 145.631 193.456C145.359 193.728 145.023 193.864 144.623 193.864ZM140.135 188.32C139.015 188.32 138.095 188.648 137.375 189.304C136.655 189.96 136.207 190.824 136.031 191.896C136.031 191.912 136.023 191.928 136.007 191.944C136.007 191.944 136.007 191.952 136.007 191.968C136.007 192.08 136.079 192.136 136.223 192.136H143.927C144.103 192.136 144.167 192.056 144.119 191.896C143.927 190.776 143.503 189.904 142.847 189.28C142.207 188.64 141.303 188.32 140.135 188.32ZM159.813 195.256C159.573 195.256 159.365 195.176 159.189 195.016C159.029 194.856 158.949 194.656 158.949 194.416C158.965 193.44 159.077 192.632 159.285 191.992C159.493 191.352 159.757 190.824 160.077 190.408C160.397 189.976 160.741 189.608 161.109 189.304C161.493 189 161.861 188.712 162.213 188.44C162.565 188.152 162.861 187.832 163.101 187.48C163.357 187.112 163.517 186.648 163.581 186.088C163.597 186.04 163.605 185.992 163.605 185.944C163.605 185.88 163.605 185.816 163.605 185.752C163.605 185.32 163.493 184.88 163.269 184.432C163.045 183.968 162.677 183.584 162.165 183.28C161.669 182.96 160.997 182.8 160.149 182.8C159.269 182.8 158.557 183.032 158.013 183.496C157.485 183.944 157.157 184.44 157.029 184.984C157.013 185.016 157.005 185.048 157.005 185.08C157.005 185.16 157.053 185.224 157.149 185.272C157.549 185.544 157.749 185.912 157.749 186.376C157.749 186.728 157.613 187.04 157.341 187.312C157.085 187.584 156.773 187.72 156.405 187.72C155.909 187.72 155.533 187.56 155.277 187.24C155.037 186.904 154.917 186.496 154.917 186.016C154.917 185.52 155.029 184.992 155.253 184.432C155.493 183.856 155.829 183.312 156.261 182.8C156.709 182.288 157.253 181.872 157.893 181.552C158.533 181.232 159.261 181.072 160.077 181.072C161.261 181.072 162.245 181.312 163.029 181.792C163.813 182.272 164.397 182.88 164.781 183.616C165.165 184.336 165.357 185.088 165.357 185.872C165.357 186.48 165.253 187.04 165.045 187.552C164.773 188.224 164.445 188.752 164.061 189.136C163.677 189.504 163.277 189.816 162.861 190.072C162.461 190.312 162.085 190.592 161.733 190.912C161.397 191.216 161.117 191.64 160.893 192.184C160.685 192.712 160.589 193.456 160.605 194.416C160.605 194.64 160.525 194.84 160.365 195.016C160.221 195.176 160.037 195.256 159.813 195.256ZM159.861 199.456C159.461 199.456 159.125 199.312 158.853 199.024C158.581 198.752 158.445 198.416 158.445 198.016C158.445 197.632 158.581 197.304 158.853 197.032C159.125 196.744 159.461 196.6 159.861 196.6C160.261 196.6 160.597 196.744 160.869 197.032C161.141 197.304 161.277 197.632 161.277 198.016C161.277 198.416 161.141 198.752 160.869 199.024C160.597 199.312 160.261 199.456 159.861 199.456Z" fill="black"/>
</svg>
