<svg width="345" height="368" viewBox="0 0 345 368" fill="none" xmlns="http://www.w3.org/2000/svg">
<g filter="url(#filter0_i_52_4)">
<path d="M228.548 90.6142C234.461 87.4244 239.596 85.2627 243.954 84.1293C248.312 82.9958 253.266 82.1099 258.814 81.4714C264.305 80.7539 269.724 80.4614 275.074 80.5939C298.393 81.1715 315.583 90.0931 326.642 107.359C337.701 124.624 342.905 146.4 342.253 172.686C341.599 199.127 335.352 220.658 323.514 237.279C311.616 253.899 293.406 261.905 268.884 261.297C254.399 260.939 240.029 258.372 225.774 253.596L226.469 225.565C233.304 228.838 238.898 231.227 243.25 232.731C247.601 234.313 251.752 235.502 255.701 236.298C259.591 237.093 263.489 237.538 267.395 237.635C282.721 238.015 293.998 231.932 301.224 219.386C308.451 206.841 312.297 191.186 312.762 172.421C313.25 152.726 309.738 136.695 302.226 124.328C294.654 111.959 283.115 105.582 267.608 105.198C254.686 104.878 241.448 108.818 227.894 117.017L228.548 90.6142Z" fill="#D9D9D9"/>
</g>
<g filter="url(#filter1_i_52_4)">
<ellipse cx="130.5" cy="94" rx="130.5" ry="94" fill="#D9D9D9"/>
</g>
<g filter="url(#filter2_i_52_4)">
<path fill-rule="evenodd" clip-rule="evenodd" d="M261 94H0V274V279H0.181396C3.78955 328.59 60.7555 368 130.5 368C200.245 368 257.21 328.59 260.819 279H261V274V94Z" fill="#D9D9D9"/>
</g>
<g filter="url(#filter3_i_52_4)">
<ellipse cx="130.5" cy="92" rx="116.5" ry="84" fill="#A9A9A9"/>
</g>
<mask id="mask0_52_4" style="mask-type:alpha" maskUnits="userSpaceOnUse" x="14" y="8" width="233" height="168">
<ellipse cx="130.5" cy="92" rx="116.5" ry="84" fill="#A9A9A9"/>
</mask>
<g mask="url(#mask0_52_4)">
<g filter="url(#filter4_i_52_4)">
<ellipse cx="131" cy="125" rx="109" ry="75" fill="url(#paint0_linear_52_4)"/>
</g>
</g>
<path d="M97 260L145 238.349L145 281.651L97 260Z" fill="#464240"/>
<path d="M62.7528 292.257C62.3428 291.999 62.0996 291.702 62.0231 291.366C61.9627 291.005 62.0208 290.682 62.1975 290.399C62.3741 290.115 62.6324 289.901 62.9724 289.756C63.338 289.627 63.7547 289.675 64.2224 289.898C64.8855 290.209 65.371 290.317 65.6789 290.224C66.0284 290.121 66.3284 289.898 66.5789 289.553C66.9192 289.121 67.4395 288.372 68.1396 287.305C68.8559 286.212 69.6958 284.892 70.6595 283.345C71.6487 281.814 72.6894 280.172 73.7816 278.419C74.0064 278.058 73.9267 277.756 73.5423 277.514L71.659 276.326C71.0441 275.938 70.6343 275.536 70.4296 275.119C70.209 274.729 70.1629 274.43 70.2914 274.224C70.5001 273.889 71.1348 273.93 72.1953 274.347C73.2718 274.739 74.6941 275.493 76.4621 276.608C77.1283 277.028 77.5285 277.388 77.6628 277.688C77.797 277.988 77.6554 278.474 77.2378 279.144L76.0573 281.039C78.4115 280.01 80.5238 280.086 82.3943 281.265C83.6242 282.041 84.4083 283.074 84.7464 284.365C85.1006 285.63 84.9645 286.765 84.3381 287.771C83.792 288.648 83.102 289.326 82.2679 289.805C81.4339 290.285 80.5172 290.21 79.5179 289.579C79.0823 289.304 78.7446 288.93 78.5048 288.455C78.3067 287.971 78.3682 287.471 78.6894 286.956C78.9464 286.543 79.2 286.308 79.4501 286.25C79.7258 286.209 79.9902 286.214 80.2434 286.266C80.5222 286.334 80.7706 286.365 80.9886 286.359C81.2322 286.369 81.4503 286.219 81.6431 285.909C81.9482 285.42 81.9905 284.979 81.7698 284.589C81.5652 284.172 81.2066 283.803 80.6942 283.479C80.1048 283.108 79.3182 282.881 78.3342 282.799C77.3919 282.707 76.3834 282.951 75.3088 283.53C74.2342 284.11 73.2071 285.186 72.2274 286.758L68.5655 292.637L70.641 293.947C71.9478 294.771 72.8188 295.464 73.254 296.026C73.6476 296.597 73.7078 297.102 73.4348 297.541C73.0012 298.237 72.4 298.342 71.6313 297.858C71.1188 297.534 70.4735 297.109 69.6952 296.582C68.9426 296.072 68.246 295.614 67.6054 295.21C66.9808 294.781 66.5789 294.509 66.3995 294.396C65.8102 294.024 65.192 293.67 64.5449 293.334C63.9395 292.988 63.3422 292.629 62.7528 292.257Z" fill="#464240"/>
<path d="M91.6829 307.744C89.7103 307.06 88.2001 306.053 87.1522 304.723C86.1142 303.365 85.504 301.785 85.3217 299.984C85.168 298.192 85.4363 296.29 86.1264 294.276C86.9053 292.003 87.9711 290.2 89.3237 288.867C90.7049 287.543 92.2724 286.703 94.0261 286.346C95.8085 285.999 97.6574 286.158 99.5728 286.823C101.145 287.368 102.381 288.103 103.28 289.027C104.179 289.95 104.814 290.943 105.186 292.006C105.567 293.04 105.758 294.023 105.758 294.957C105.758 295.89 105.659 296.645 105.462 297.22C105.235 297.882 104.866 298.446 104.355 298.912C103.843 299.378 103.301 299.512 102.729 299.314L99.5989 298.227C98.9601 298.038 98.312 297.829 97.6544 297.601C97.0255 297.382 96.368 297.154 95.6819 296.916C94.8242 296.618 93.833 296.29 92.7082 295.932C91.5932 295.545 90.564 295.188 89.6206 294.861C89.5427 294.995 89.4599 295.143 89.3722 295.306C89.3229 295.449 89.2736 295.593 89.2243 295.737C88.8201 296.917 88.683 298.157 88.813 299.457C88.953 300.729 89.3857 301.893 90.1112 302.95C90.8466 303.978 91.9147 304.735 93.3155 305.221C94.8307 305.747 96.13 305.876 97.2134 305.608C98.3067 305.311 99.1821 304.81 99.8397 304.105C100.497 303.4 100.939 302.716 101.166 302.055C101.245 301.824 101.429 301.566 101.719 301.281C102.038 301.005 102.497 300.971 103.097 301.18C103.441 301.299 103.696 301.532 103.865 301.881C104.043 302.2 104.059 302.575 103.911 303.007C103.428 304.417 102.674 305.636 101.65 306.665C100.664 307.674 99.3565 308.315 97.7279 308.587C96.0993 308.859 94.0843 308.578 91.6829 307.744ZM98.5273 289.453C97.3265 289.037 96.2086 288.938 95.1735 289.159C94.1483 289.35 93.2452 289.745 92.4644 290.343C91.6935 290.912 91.0985 291.575 90.6795 292.331L101.588 295.924C102.074 296.092 102.356 296.062 102.435 295.831C102.652 295.199 102.665 294.462 102.472 293.623C102.309 292.794 101.91 291.996 101.278 291.229C100.645 290.462 99.728 289.87 98.5273 289.453Z" fill="#464240"/>
<path d="M115.67 313.557C113.967 313.295 112.805 312.485 112.186 311.127C111.863 310.431 111.67 309.693 111.605 308.913C111.574 308.108 111.599 307.342 111.679 306.616C111.789 305.894 111.878 305.307 111.947 304.856L113.588 294.072C113.289 294.026 112.975 293.977 112.646 293.927C112.347 293.881 112.016 293.845 111.653 293.82C111.29 293.795 110.944 293.757 110.615 293.706C110.316 293.66 110.032 293.616 109.763 293.575C109.583 293.547 109.343 293.418 109.042 293.187C108.71 292.951 108.586 292.562 108.668 292.021C108.733 291.6 108.928 291.322 109.254 291.187C109.585 291.023 109.964 290.943 110.392 290.947L112.713 291.074C113.32 291.106 113.699 291.026 113.851 290.834C114.007 290.611 114.124 290.245 114.202 289.733C114.298 289.102 114.401 288.425 114.511 287.703C114.655 286.955 114.848 286.292 115.089 285.714C115.296 285.161 115.59 284.837 115.971 284.741C116.259 284.663 116.507 284.639 116.716 284.672C117.105 284.731 117.433 284.89 117.699 285.146C117.971 285.373 118.038 285.937 117.901 286.84L117.166 291.668C117.435 291.709 117.853 291.774 118.421 291.861C119.024 291.923 119.656 291.99 120.318 292.061C121.01 292.137 121.625 292.216 122.164 292.299C122.706 292.352 123.082 292.395 123.291 292.427C123.65 292.482 123.993 292.643 124.319 292.909C124.651 293.144 124.78 293.503 124.706 293.984C124.642 294.405 124.46 294.701 124.159 294.87C123.862 295.009 123.575 295.088 123.297 295.106C122.749 295.083 122.205 295.046 121.662 294.993C121.119 294.94 120.562 294.885 119.989 294.827C118.879 294.687 117.796 294.566 116.74 294.465L114.996 305.926C114.895 306.588 114.85 307.289 114.86 308.029C114.869 308.77 115 309.421 115.251 309.983C115.536 310.52 116.023 310.841 116.71 310.947C117.607 311.085 118.276 310.911 118.717 310.425C119.193 309.913 119.557 309.431 119.809 308.977C120.066 308.493 120.317 308.054 120.56 307.661C120.804 307.268 121.284 307.126 122.001 307.237C122.45 307.306 122.719 307.547 122.809 307.961C122.903 308.345 122.939 308.613 122.916 308.763C122.852 309.184 122.65 309.707 122.31 310.332C121.975 310.927 121.505 311.501 120.901 312.054C120.297 312.608 119.557 313.048 118.681 313.375C117.81 313.672 116.806 313.732 115.67 313.557Z" fill="#464240"/>
<path d="M138.425 314.996C136.4 315.045 134.59 314.633 132.996 313.758C131.401 312.854 130.131 311.591 129.184 309.97C128.267 308.318 127.783 306.412 127.731 304.252C127.68 302.153 128.074 300.271 128.911 298.607C129.748 296.913 130.97 295.559 132.58 294.545C134.219 293.531 136.172 292.997 138.44 292.942C140.677 292.887 142.578 293.343 144.144 294.309C145.71 295.276 146.906 296.586 147.733 298.24C148.588 299.863 149.04 301.648 149.087 303.595C149.131 305.451 148.838 307.087 148.206 308.502C147.605 309.917 146.787 311.109 145.751 312.078C144.715 313.016 143.552 313.73 142.263 314.218C141.005 314.705 139.725 314.964 138.425 314.996ZM138.449 312.21C139.235 312.191 140.048 312.019 140.887 311.694C141.756 311.338 142.56 310.816 143.3 310.129C144.069 309.41 144.682 308.512 145.141 307.435C145.599 306.359 145.81 305.075 145.774 303.585C145.735 301.972 145.399 300.58 144.766 299.408C144.132 298.206 143.263 297.284 142.159 296.641C141.084 295.967 139.851 295.647 138.46 295.681C137.1 295.714 135.853 296.079 134.72 296.776C133.617 297.442 132.733 298.408 132.068 299.672C131.401 300.906 131.089 302.39 131.131 304.124C131.176 306.01 131.576 307.553 132.331 308.752C133.116 309.95 134.06 310.841 135.163 311.423C136.296 311.973 137.391 312.236 138.449 312.21Z" fill="#464240"/>
<path d="M175.777 309.624C175.455 309.708 175.152 309.441 174.868 308.823C174.726 308.514 174.565 308.069 174.385 307.487C174.196 306.876 173.978 306.147 173.729 305.3C173.632 306.017 173.382 306.805 172.978 307.665C172.566 308.495 171.938 309.271 171.093 309.994C170.277 310.709 169.181 311.245 167.805 311.603C165.99 312.075 164.442 312.007 163.16 311.397C161.879 310.787 160.841 309.847 160.047 308.576C159.244 307.276 158.646 305.86 158.253 304.328L156.039 295.71C155.865 295.033 155.678 294.61 155.479 294.442C155.301 294.236 154.876 294.221 154.202 294.396L151.875 295.002C151.435 295.116 151.01 295.164 150.6 295.145C150.189 295.126 149.93 294.91 149.824 294.498C149.703 294.027 150.158 293.547 151.188 293.059C151.685 292.804 152.295 292.566 153.02 292.347C153.737 292.097 154.549 291.855 155.457 291.618C156.628 291.314 157.415 291.219 157.82 291.334C158.216 291.419 158.536 291.933 158.778 292.876C158.922 293.436 159.104 294.206 159.324 295.186C159.537 296.136 159.765 297.146 160.009 298.214C160.244 299.253 160.472 300.199 160.691 301.054C160.926 301.967 161.209 302.946 161.54 303.992C161.863 305.008 162.274 305.938 162.772 306.783C163.27 307.628 163.917 308.261 164.712 308.683C165.5 309.075 166.48 309.119 167.651 308.814C168.822 308.51 169.819 307.952 170.641 307.141C171.485 306.293 172.079 305.321 172.422 304.226C172.795 303.123 172.841 302.027 172.561 300.936L170.888 293.875C170.578 292.667 170.028 292.166 169.237 292.372L165.899 293.24C164.904 293.499 164.338 293.363 164.202 292.833C164.058 292.273 164.424 291.753 165.301 291.274C166.097 290.847 167.578 290.351 169.745 289.788C171.033 289.453 171.908 289.335 172.371 289.435C172.864 289.527 173.242 290.088 173.507 291.119C173.719 291.944 174.015 293.219 174.395 294.943C174.805 296.66 175.324 298.741 175.952 301.186C176.141 301.923 176.304 302.556 176.44 303.086C176.569 303.587 176.689 303.996 176.802 304.312L177.086 305.417C177.169 305.741 177.306 305.973 177.498 306.112C177.712 306.213 178.067 306.199 178.565 306.07C178.741 306.024 178.883 305.971 178.993 305.911L179.915 305.671C180.969 305.397 181.587 305.614 181.769 306.321C181.92 306.91 181.572 307.441 180.725 307.912C179.915 308.406 178.265 308.977 175.777 309.624Z" fill="#464240"/>
<path d="M190.083 302.986C189.661 303.224 189.286 303.298 188.956 303.205C188.612 303.086 188.358 302.88 188.195 302.589C188.032 302.297 187.968 301.966 188.004 301.597C188.067 301.212 188.307 300.866 188.725 300.559C189.313 300.121 189.64 299.744 189.706 299.427C189.783 299.069 189.731 298.697 189.549 298.311C189.335 297.804 188.929 296.986 188.332 295.857C187.721 294.702 186.97 293.329 186.079 291.738C185.215 290.132 184.279 288.428 183.27 286.625C183.062 286.254 182.76 286.18 182.365 286.404L180.428 287.502C179.796 287.86 179.249 288.03 178.788 288.012C178.342 288.021 178.059 287.919 177.94 287.707C177.747 287.362 178.086 286.821 178.957 286.083C179.814 285.318 181.151 284.42 182.969 283.39C183.654 283.002 184.16 282.82 184.486 282.845C184.812 282.869 185.168 283.226 185.554 283.916L186.645 285.865C186.871 283.292 187.945 281.46 189.869 280.37C191.134 279.653 192.41 279.454 193.699 279.771C194.972 280.063 195.898 280.725 196.477 281.759C196.982 282.661 197.244 283.595 197.264 284.561C197.284 285.528 196.781 286.302 195.753 286.884C195.305 287.138 194.817 287.258 194.288 287.243C193.771 287.187 193.364 286.894 193.067 286.364C192.829 285.939 192.745 285.603 192.814 285.354C192.91 285.091 193.041 284.859 193.207 284.66C193.4 284.446 193.545 284.242 193.644 284.046C193.769 283.835 193.743 283.571 193.564 283.253C193.283 282.749 192.918 282.501 192.472 282.51C192.011 282.492 191.517 282.632 190.99 282.931C190.383 283.274 189.81 283.861 189.268 284.692C188.738 285.482 188.469 286.49 188.462 287.716C188.454 288.943 188.903 290.365 189.808 291.983L193.191 298.028L195.326 296.819C196.67 296.057 197.691 295.618 198.389 295.502C199.076 295.427 199.546 295.615 199.798 296.065C200.199 296.781 200.004 297.363 199.213 297.811C198.686 298.11 198.007 298.477 197.175 298.914C196.37 299.335 195.638 299.733 194.979 300.106C194.305 300.453 193.876 300.678 193.692 300.783C193.086 301.126 192.482 301.504 191.879 301.915C191.288 302.285 190.689 302.642 190.083 302.986Z" fill="#464240"/>
<defs>
<filter id="filter0_i_52_4" x="224.774" y="80.563" width="117.533" height="188.467" filterUnits="userSpaceOnUse" color-interpolation-filters="sRGB">
<feFlood flood-opacity="0" result="BackgroundImageFix"/>
<feBlend mode="normal" in="SourceGraphic" in2="BackgroundImageFix" result="shape"/>
<feColorMatrix in="SourceAlpha" type="matrix" values="0 0 0 0 0 0 0 0 0 0 0 0 0 0 0 0 0 0 127 0" result="hardAlpha"/>
<feOffset dx="-1" dy="21"/>
<feGaussianBlur stdDeviation="3.85"/>
<feComposite in2="hardAlpha" operator="arithmetic" k2="-1" k3="1"/>
<feColorMatrix type="matrix" values="0 0 0 0 0 0 0 0 0 0 0 0 0 0 0 0 0 0 0.34 0"/>
<feBlend mode="normal" in2="shape" result="effect1_innerShadow_52_4"/>
</filter>
<filter id="filter1_i_52_4" x="-18.4" y="0" width="279.4" height="188" filterUnits="userSpaceOnUse" color-interpolation-filters="sRGB">
<feFlood flood-opacity="0" result="BackgroundImageFix"/>
<feBlend mode="normal" in="SourceGraphic" in2="BackgroundImageFix" result="shape"/>
<feColorMatrix in="SourceAlpha" type="matrix" values="0 0 0 0 0 0 0 0 0 0 0 0 0 0 0 0 0 0 127 0" result="hardAlpha"/>
<feOffset dx="-57"/>
<feGaussianBlur stdDeviation="9.2"/>
<feComposite in2="hardAlpha" operator="arithmetic" k2="-1" k3="1"/>
<feColorMatrix type="matrix" values="0 0 0 0 0 0 0 0 0 0 0 0 0 0 0 0 0 0 0.25 0"/>
<feBlend mode="normal" in2="shape" result="effect1_innerShadow_52_4"/>
</filter>
<filter id="filter2_i_52_4" x="-13.1" y="91" width="274.1" height="277" filterUnits="userSpaceOnUse" color-interpolation-filters="sRGB">
<feFlood flood-opacity="0" result="BackgroundImageFix"/>
<feBlend mode="normal" in="SourceGraphic" in2="BackgroundImageFix" result="shape"/>
<feColorMatrix in="SourceAlpha" type="matrix" values="0 0 0 0 0 0 0 0 0 0 0 0 0 0 0 0 0 0 127 0" result="hardAlpha"/>
<feOffset dx="-23" dy="-3"/>
<feGaussianBlur stdDeviation="6.55"/>
<feComposite in2="hardAlpha" operator="arithmetic" k2="-1" k3="1"/>
<feColorMatrix type="matrix" values="0 0 0 0 0 0 0 0 0 0 0 0 0 0 0 0 0 0 0.25 0"/>
<feBlend mode="normal" in2="shape" result="effect1_innerShadow_52_4"/>
</filter>
<filter id="filter3_i_52_4" x="-27" y="-29" width="274" height="205" filterUnits="userSpaceOnUse" color-interpolation-filters="sRGB">
<feFlood flood-opacity="0" result="BackgroundImageFix"/>
<feBlend mode="normal" in="SourceGraphic" in2="BackgroundImageFix" result="shape"/>
<feColorMatrix in="SourceAlpha" type="matrix" values="0 0 0 0 0 0 0 0 0 0 0 0 0 0 0 0 0 0 127 0" result="hardAlpha"/>
<feOffset dx="-41" dy="-37"/>
<feGaussianBlur stdDeviation="23.5"/>
<feComposite in2="hardAlpha" operator="arithmetic" k2="-1" k3="1"/>
<feColorMatrix type="matrix" values="0 0 0 0 0 0 0 0 0 0 0 0 0 0 0 0 0 0 0.25 0"/>
<feBlend mode="normal" in2="shape" result="effect1_innerShadow_52_4"/>
</filter>
<filter id="filter4_i_52_4" x="22" y="33" width="231" height="167" filterUnits="userSpaceOnUse" color-interpolation-filters="sRGB">
<feFlood flood-opacity="0" result="BackgroundImageFix"/>
<feBlend mode="normal" in="SourceGraphic" in2="BackgroundImageFix" result="shape"/>
<feColorMatrix in="SourceAlpha" type="matrix" values="0 0 0 0 0 0 0 0 0 0 0 0 0 0 0 0 0 0 127 0" result="hardAlpha"/>
<feMorphology radius="13" operator="erode" in="SourceAlpha" result="effect1_innerShadow_52_4"/>
<feOffset dx="13" dy="-17"/>
<feGaussianBlur stdDeviation="13.35"/>
<feComposite in2="hardAlpha" operator="arithmetic" k2="-1" k3="1"/>
<feColorMatrix type="matrix" values="0 0 0 0 0 0 0 0 0 0 0 0 0 0 0 0 0 0 0.25 0"/>
<feBlend mode="normal" in2="shape" result="effect1_innerShadow_52_4"/>
</filter>
<linearGradient id="paint0_linear_52_4" x1="3.44681" y1="79.9107" x2="257.501" y2="155.122" gradientUnits="userSpaceOnUse">
<stop offset="0.204" stop-color="#603A23"/>
<stop offset="0.369" stop-color="#773D1C"/>
<stop offset="0.719" stop-color="#5F2D11"/>
<stop offset="0.934" stop-color="#603A23"/>
</linearGradient>
</defs>
</svg>
